<svg version="1.1" id="Layer_1" xmlns="http://www.w3.org/2000/svg" xmlns:xlink="http://www.w3.org/1999/xlink" x="0px" y="0px"
	 width="100%" viewBox="0 0 1200 675" enable-background="new 0 0 1200 675" xml:space="preserve">
<path fill="#FFFFFF" opacity="1.000000" stroke="none" 
	d="
M1128.000000,676.000000 
	C752.000000,676.000000 376.500031,676.000000 1.000050,676.000000 
	C1.000034,451.000031 1.000034,226.000076 1.000017,1.000081 
	C400.999969,1.000054 800.999939,1.000054 1201.000000,1.000027 
	C1201.000000,225.999924 1201.000000,450.999847 1201.000000,675.999878 
	C1176.833374,676.000000 1152.666626,676.000000 1128.000000,676.000000 
M469.733795,380.386017 
	C485.010651,380.386017 500.287476,380.386017 515.595215,380.386017 
	C515.595215,377.116089 515.595215,374.206451 515.595215,370.697693 
	C506.323364,370.697693 497.334808,370.697693 487.711975,370.697693 
	C496.761993,358.504517 505.376404,347.089569 513.720764,335.480530 
	C515.233948,333.375397 515.640564,330.474976 516.730103,327.466522 
	C501.370850,327.466522 487.442932,327.466522 473.317017,327.466522 
	C473.317017,330.605835 473.317017,333.499969 473.317017,336.987854 
	C481.893250,336.987854 490.226990,336.987854 499.088379,336.987854 
	C488.718964,351.172638 478.825806,364.705963 468.920532,377.453857 
	C461.241516,356.732880 453.551697,336.015930 445.888275,315.289215 
	C442.433319,305.944733 442.455505,306.080048 432.442230,305.962219 
	C429.228394,305.924377 427.844971,306.971985 426.775421,309.985718 
	C423.112457,320.306885 419.057037,330.488098 415.218140,340.747650 
	C410.339844,353.784851 405.526733,366.846436 400.661713,379.961761 
	C413.281921,382.085358 413.683807,381.860443 417.403992,370.986725 
	C418.103607,368.941864 418.493530,366.673981 419.667816,364.944611 
	C420.658112,363.486206 422.518585,361.820435 424.099518,361.706085 
	C429.566925,361.310669 435.080414,361.552673 440.576385,361.552521 
	C449.570038,361.552307 449.570038,361.552460 452.574158,369.931946 
	C456.699554,381.438873 456.699554,381.438873 469.733795,380.386017 
M269.606750,292.833649 
	C252.847549,280.506714 236.088348,268.179749 218.560989,255.287781 
	C218.560989,260.634827 218.389221,264.756409 218.618210,268.855621 
	C218.785538,271.851074 217.677185,273.159424 214.838013,274.241577 
	C198.221741,280.575226 181.693588,287.141479 165.173553,293.724213 
	C163.385056,294.436859 161.419922,295.419739 160.254807,296.858704 
	C155.445374,302.798523 150.895386,308.949432 146.300491,315.060669 
	C145.737350,315.809631 145.133331,316.785553 145.129288,317.658966 
	C145.058319,332.942078 145.078033,348.225647 145.078033,363.859894 
	C150.973114,364.937042 156.508118,365.948395 162.309296,367.574524 
	C177.255539,385.234528 192.201782,402.894501 207.148026,420.554504 
	C207.506821,420.375763 207.865631,420.197021 208.224426,420.018250 
	C208.224426,413.669617 208.224426,407.320984 208.224426,400.762115 
	C209.346725,400.950195 210.017792,400.973083 210.627777,401.177856 
	C228.743896,407.259766 246.895615,413.240723 264.932404,419.550018 
	C268.872925,420.928436 271.524841,420.360107 274.661987,417.679535 
	C285.405762,408.499573 296.346588,399.544312 307.385590,390.720154 
	C309.892456,388.716278 310.722931,386.627686 310.708344,383.555725 
	C310.607513,362.329315 310.654663,341.102264 310.654419,319.875397 
	C310.654297,308.664001 310.654419,297.452637 310.654419,285.474915 
	C296.568420,288.235321 283.261871,290.842957 269.606750,292.833649 
M950.402527,337.996826 
	C950.289734,337.003601 950.186523,336.009216 950.062866,335.017365 
	C948.201050,320.084412 938.059204,308.601898 924.107483,305.626984 
	C907.426208,302.070038 892.301086,308.122986 884.366699,321.599945 
	C880.461243,328.233704 879.004761,335.547943 878.973267,343.136261 
	C878.911194,358.112061 883.470642,371.079102 897.704590,377.983063 
	C910.864685,384.366150 924.377502,383.782135 936.453735,374.937073 
	C948.567810,366.064331 950.974365,352.917999 950.402527,337.996826 
M718.501221,306.047546 
	C713.722046,306.047546 708.942871,306.047546 704.112061,306.047546 
	C704.112061,331.135223 704.112061,355.654419 704.112061,380.246582 
	C712.936951,380.246582 721.459473,380.887421 729.855469,380.128479 
	C756.883911,377.685211 771.141235,357.631073 765.194580,331.149078 
	C762.437134,318.869568 754.778198,311.017822 742.740540,308.337158 
	C735.197266,306.657318 727.259216,306.750122 718.501221,306.047546 
M1009.370361,337.246613 
	C1000.675354,322.983124 986.965027,322.003448 972.979492,334.988373 
	C972.835999,332.347534 972.708008,329.993134 972.572754,327.504150 
	C968.470581,327.504150 964.728577,327.504150 960.922241,327.504150 
	C960.922241,353.444489 960.922241,379.105591 960.922241,404.617798 
	C965.137207,404.617798 968.862488,404.617798 972.959839,404.617798 
	C972.959839,394.318848 972.959839,384.431885 972.959839,374.158875 
	C987.429260,389.137970 1007.613708,379.808167 1011.173889,362.945740 
	C1012.964172,354.466309 1012.995605,346.094910 1009.370361,337.246613 
M621.147644,338.709290 
	C615.725525,350.371552 615.362000,362.066254 622.886169,372.763885 
	C630.179626,383.133453 641.226379,382.670410 652.278015,380.926270 
	C652.606628,380.874420 652.953491,380.881012 653.263306,380.776093 
	C662.989014,377.482086 662.589417,378.687500 661.261353,367.985687 
	C652.618103,372.369659 643.797180,375.004242 635.035522,368.792084 
	C631.376648,366.197845 629.793213,362.232208 630.421997,357.059906 
	C642.405396,357.059906 654.108643,357.059906 665.752991,357.059906 
	C666.525208,346.342346 664.662659,338.376678 660.373047,333.363953 
	C650.326660,321.624115 631.038696,323.979614 621.147644,338.709290 
M777.150452,337.727936 
	C772.761841,344.945801 772.184387,352.870697 773.398254,360.909851 
	C775.421021,374.305939 784.756409,382.050629 798.310791,381.837738 
	C801.619263,381.785828 804.965637,381.428772 808.214417,380.798615 
	C817.572937,378.983337 818.350464,377.716187 816.757874,368.108643 
	C798.062561,375.960907 785.713074,371.893951 785.921997,357.308472 
	C797.605164,357.308472 809.319336,357.308472 821.208923,357.308472 
	C821.208923,353.551239 821.473389,350.406982 821.164795,347.320038 
	C819.510498,330.774109 806.044556,321.736237 790.478577,327.477600 
	C785.652283,329.257751 781.862671,333.848419 777.150452,337.727936 
M554.121094,368.648834 
	C550.308167,372.137085 545.927612,373.035675 541.202209,371.011078 
	C536.594055,369.036713 535.533386,364.789154 535.224243,360.327179 
	C535.017395,357.342896 535.048950,354.339539 535.040710,351.344543 
	C535.018799,343.422516 535.033264,335.500427 535.033264,327.579407 
	C530.647949,327.579407 526.915405,327.579407 522.914917,327.579407 
	C522.914917,333.412842 522.826660,338.899658 522.936218,344.382538 
	C523.088867,352.025024 522.733765,359.756409 523.788025,367.282776 
	C525.199768,377.361267 532.933899,382.646637 543.097717,381.822113 
	C549.021729,381.341553 553.750305,378.726776 557.763794,373.140442 
	C557.988220,376.197723 558.136597,378.219666 558.275330,380.109802 
	C562.486450,380.109802 566.369141,380.109802 570.230530,380.109802 
	C570.230530,362.323517 570.230530,344.984924 570.230530,327.589355 
	C566.010193,327.589355 562.122253,327.589355 558.041138,327.589355 
	C558.041138,337.766144 558.338074,347.597260 557.886047,357.393799 
	C557.719543,361.000763 555.785156,364.526154 554.121094,368.648834 
M846.033813,357.291443 
	C843.996948,350.791016 841.901367,344.308289 839.936096,337.786285 
	C836.428955,326.146881 836.461792,326.136963 823.561646,327.630798 
	C824.004456,329.089478 824.361023,330.519867 824.867981,331.894775 
	C829.810364,345.299896 834.776855,358.696167 839.738892,372.094055 
	C842.899963,380.629272 842.906860,380.433289 851.628906,380.660522 
	C855.097839,380.750854 856.595886,379.521088 857.729370,376.395294 
	C861.014404,367.336334 864.631836,358.398132 868.099426,349.405060 
	C870.877563,342.199860 873.627197,334.983704 876.599915,327.223297 
	C873.373474,327.223297 870.880066,327.423035 868.431885,327.175537 
	C864.936462,326.822205 863.027222,327.840485 862.105896,331.567474 
	C860.754028,337.036102 858.730591,342.340637 856.950623,347.700897 
	C854.688660,354.512573 852.383911,361.310089 849.789368,369.031036 
	C848.391479,364.656403 847.336060,361.353638 846.033813,357.291443 
M1021.346558,349.978821 
	C1023.204895,351.606445 1024.848999,353.633148 1026.969849,354.771606 
	C1030.464111,356.647156 1034.270264,357.939880 1037.938477,359.493622 
	C1041.365479,360.945251 1045.263306,362.456451 1044.620361,366.994751 
	C1043.938721,371.806366 1039.517212,372.763763 1035.739624,372.406006 
	C1030.119507,371.873779 1024.599854,370.282623 1018.959839,369.126221 
	C1018.959839,370.191254 1019.205139,372.056732 1018.910645,373.832672 
	C1018.224976,377.967743 1019.922241,380.418457 1023.962646,380.557983 
	C1030.705933,380.790924 1037.626221,381.488892 1044.177246,380.328247 
	C1052.970337,378.770416 1057.406982,372.213165 1056.882446,364.366364 
	C1056.539062,359.229431 1053.914673,355.494110 1049.543945,353.226044 
	C1045.135254,350.938324 1040.255249,349.527039 1035.954712,347.077179 
	C1033.956543,345.938873 1031.386230,342.984009 1031.688965,341.331696 
	C1032.079468,339.200836 1034.796997,336.653687 1037.045898,335.919098 
	C1039.867920,334.997284 1043.280029,335.397827 1046.345215,335.851379 
	C1048.960449,336.238342 1051.445068,337.507141 1054.163818,338.446808 
	C1054.163818,335.761078 1054.500366,333.370605 1054.042236,331.143555 
	C1053.750488,329.725220 1052.508789,327.738312 1051.300903,327.397858 
	C1044.100464,325.368622 1036.816162,325.292816 1029.729980,328.045502 
	C1019.983704,331.831421 1016.725464,339.843475 1021.346558,349.978821 
M595.040955,327.340729 
	C591.415039,327.340729 587.789062,327.340729 584.017334,327.340729 
	C584.017334,345.184509 584.017334,362.723022 584.017334,380.273254 
	C588.131592,380.273254 591.905640,380.273254 596.033875,380.273254 
	C596.033875,371.361755 595.953674,362.727478 596.052917,354.095245 
	C596.196472,341.609375 602.213623,336.359833 614.770935,337.982422 
	C614.770935,336.138214 614.773193,334.338593 614.770447,332.538971 
	C614.761108,326.383575 613.407227,325.130066 607.352722,326.764832 
	C604.767273,327.462921 602.321289,329.128662 600.163208,330.806519 
	C598.612000,332.012573 597.642883,333.967468 596.169189,335.911346 
	C596.018799,332.816376 595.898132,330.333679 595.040955,327.340729 
z"/>
<path fill="#0279D7" opacity="1.000000" stroke="none" 
	d="
M269.955322,293.450592 
	C283.261871,290.842957 296.568420,288.235321 310.654419,285.474915 
	C310.654419,297.452637 310.654297,308.664001 310.654419,319.875397 
	C310.654663,341.102264 310.607513,362.329315 310.708344,383.555725 
	C310.722931,386.627686 309.892456,388.716278 307.385590,390.720154 
	C296.346588,399.544312 285.405762,408.499573 274.661987,417.679535 
	C271.524841,420.360107 268.872925,420.928436 264.932404,419.550018 
	C246.895615,413.240723 228.743896,407.259766 210.627777,401.177856 
	C210.017792,400.973083 209.346725,400.950195 208.224426,400.762115 
	C208.224426,407.320984 208.224426,413.669617 208.224426,420.018250 
	C207.865631,420.197021 207.506821,420.375763 207.148026,420.554504 
	C192.201782,402.894501 177.255539,385.234528 162.151932,367.287170 
	C161.994568,366.999817 161.953598,367.047668 162.381378,367.020538 
	C198.345856,371.913452 233.882523,376.833466 270.049988,381.840820 
	C270.049988,352.297363 270.049988,323.062469 270.031769,293.731995 
	C270.013550,293.636353 269.955322,293.450592 269.955322,293.450592 
z"/>
<path fill="#037AD7" opacity="1.000000" stroke="none" 
	d="
M269.781036,293.142120 
	C269.955322,293.450592 270.013550,293.636353 269.599731,293.660034 
	C244.659897,298.277863 220.132935,302.866913 195.608337,307.468475 
	C184.521988,309.548584 173.440277,311.653503 161.953598,313.823303 
	C161.953598,331.781616 161.953598,349.414642 161.953598,367.047668 
	C161.953598,367.047668 161.994568,366.999817 162.018860,366.979797 
	C156.508118,365.948395 150.973114,364.937042 145.078033,363.859894 
	C145.078033,348.225647 145.058319,332.942078 145.129288,317.658966 
	C145.133331,316.785553 145.737350,315.809631 146.300491,315.060669 
	C150.895386,308.949432 155.445374,302.798523 160.254807,296.858704 
	C161.419922,295.419739 163.385056,294.436859 165.173553,293.724213 
	C181.693588,287.141479 198.221741,280.575226 214.838013,274.241577 
	C217.677185,273.159424 218.785538,271.851074 218.618210,268.855621 
	C218.389221,264.756409 218.560989,260.634827 218.560989,255.287781 
	C236.088348,268.179749 252.847549,280.506714 269.781036,293.142120 
z"/>
<path fill="#047AD8" opacity="1.000000" stroke="none" 
	d="
M950.465088,338.442932 
	C950.974365,352.917999 948.567810,366.064331 936.453735,374.937073 
	C924.377502,383.782135 910.864685,384.366150 897.704590,377.983063 
	C883.470642,371.079102 878.911194,358.112061 878.973267,343.136261 
	C879.004761,335.547943 880.461243,328.233704 884.366699,321.599945 
	C892.301086,308.122986 907.426208,302.070038 924.107483,305.626984 
	C938.059204,308.601898 948.201050,320.084412 950.062866,335.017365 
	C950.186523,336.009216 950.289734,337.003601 950.465088,338.442932 
M918.141724,315.980133 
	C909.070251,315.111725 901.435425,317.969116 896.759827,325.910553 
	C890.295593,336.890198 890.220398,348.469940 896.085510,359.745789 
	C900.413147,368.065796 908.686646,371.986115 917.815735,370.653534 
	C927.152649,369.290649 933.219482,363.945068 935.870361,354.924347 
	C938.178284,347.070435 938.119385,339.069855 935.750488,331.294952 
	C933.243958,323.068665 927.887085,317.530670 918.141724,315.980133 
z"/>
<path fill="#037AD7" opacity="1.000000" stroke="none" 
	d="
M718.999756,306.047546 
	C727.259216,306.750122 735.197266,306.657318 742.740540,308.337158 
	C754.778198,311.017822 762.437134,318.869568 765.194580,331.149078 
	C771.141235,357.631073 756.883911,377.685211 729.855469,380.128479 
	C721.459473,380.887421 712.936951,380.246582 704.112061,380.246582 
	C704.112061,355.654419 704.112061,331.135223 704.112061,306.047546 
	C708.942871,306.047546 713.722046,306.047546 718.999756,306.047546 
M745.638733,363.149353 
	C755.484802,354.151611 754.596985,335.436310 749.752930,327.313324 
	C744.368713,318.284607 730.521729,314.143768 716.408691,317.522644 
	C716.408691,334.835846 716.408691,352.188507 716.408691,369.792664 
	C726.721924,370.208496 736.706543,370.736603 745.638733,363.149353 
z"/>
<path fill="#047AD8" opacity="1.000000" stroke="none" 
	d="
M468.976379,380.102966 
	C456.699554,381.438873 456.699554,381.438873 452.574158,369.931946 
	C449.570038,361.552460 449.570038,361.552307 440.576385,361.552521 
	C435.080414,361.552673 429.566925,361.310669 424.099518,361.706085 
	C422.518585,361.820435 420.658112,363.486206 419.667816,364.944611 
	C418.493530,366.673981 418.103607,368.941864 417.403992,370.986725 
	C413.683807,381.860443 413.281921,382.085358 400.661713,379.961761 
	C405.526733,366.846436 410.339844,353.784851 415.218140,340.747650 
	C419.057037,330.488098 423.112457,320.306885 426.775421,309.985718 
	C427.844971,306.971985 429.228394,305.924377 432.442230,305.962219 
	C442.455505,306.080048 442.433319,305.944733 445.888275,315.289215 
	C453.551697,336.015930 461.241516,356.732880 468.943237,378.156799 
	C468.969421,379.274139 468.972900,379.688568 468.976379,380.102966 
M425.657501,346.042877 
	C425.157745,347.695587 424.657990,349.348297 424.146576,351.039520 
	C431.744476,351.039520 438.854736,351.039520 446.217560,351.039520 
	C442.448822,340.185211 438.859833,329.848602 435.038116,318.841705 
	C431.812256,328.190796 428.861053,336.743896 425.657501,346.042877 
z"/>
<path fill="#057BD8" opacity="1.000000" stroke="none" 
	d="
M1009.551514,337.578156 
	C1012.995605,346.094910 1012.964172,354.466309 1011.173889,362.945740 
	C1007.613708,379.808167 987.429260,389.137970 972.959839,374.158875 
	C972.959839,384.431885 972.959839,394.318848 972.959839,404.617798 
	C968.862488,404.617798 965.137207,404.617798 960.922241,404.617798 
	C960.922241,379.105591 960.922241,353.444489 960.922241,327.504150 
	C964.728577,327.504150 968.470581,327.504150 972.572754,327.504150 
	C972.708008,329.993134 972.835999,332.347534 972.979492,334.988373 
	C986.965027,322.003448 1000.675354,322.983124 1009.551514,337.578156 
M989.562012,371.472595 
	C997.851013,367.772034 1001.761108,358.175629 999.403442,347.319031 
	C997.754211,339.724670 992.820557,335.497528 986.004944,335.839203 
	C979.212463,336.179718 973.711792,341.433899 972.924377,348.636505 
	C972.600586,351.598328 972.733765,354.618073 972.771606,357.610046 
	C972.898865,367.672943 978.699097,372.756195 989.562012,371.472595 
z"/>
<path fill="#057AD8" opacity="1.000000" stroke="none" 
	d="
M621.353516,338.406647 
	C631.038696,323.979614 650.326660,321.624115 660.373047,333.363953 
	C664.662659,338.376678 666.525208,346.342346 665.752991,357.059906 
	C654.108643,357.059906 642.405396,357.059906 630.421997,357.059906 
	C629.793213,362.232208 631.376648,366.197845 635.035522,368.792084 
	C643.797180,375.004242 652.618103,372.369659 661.261353,367.985687 
	C662.589417,378.687500 662.989014,377.482086 653.263306,380.776093 
	C652.953491,380.881012 652.606628,380.874420 652.278015,380.926270 
	C641.226379,382.670410 630.179626,383.133453 622.886169,372.763885 
	C615.362000,362.066254 615.725525,350.371552 621.353516,338.406647 
M653.809509,344.085480 
	C651.356140,337.107544 647.080261,334.168640 640.887573,335.203949 
	C634.992004,336.189606 630.501953,341.896973 630.544006,348.806061 
	C637.476318,348.806061 644.418579,348.704254 651.355591,348.850464 
	C654.660339,348.920105 654.181396,346.941620 653.809509,344.085480 
z"/>
<path fill="#047AD8" opacity="1.000000" stroke="none" 
	d="
M777.374451,337.440155 
	C781.862671,333.848419 785.652283,329.257751 790.478577,327.477600 
	C806.044556,321.736237 819.510498,330.774109 821.164795,347.320038 
	C821.473389,350.406982 821.208923,353.551239 821.208923,357.308472 
	C809.319336,357.308472 797.605164,357.308472 785.921997,357.308472 
	C785.713074,371.893951 798.062561,375.960907 816.757874,368.108643 
	C818.350464,377.716187 817.572937,378.983337 808.214417,380.798615 
	C804.965637,381.428772 801.619263,381.785828 798.310791,381.837738 
	C784.756409,382.050629 775.421021,374.305939 773.398254,360.909851 
	C772.184387,352.870697 772.761841,344.945801 777.374451,337.440155 
M809.247314,344.298828 
	C806.902283,337.158142 802.755005,334.168365 796.592102,335.175690 
	C790.330261,336.199188 786.059387,341.552887 785.939941,348.810516 
	C792.882446,348.810516 799.822815,348.756012 806.761597,348.836487 
	C809.660278,348.870087 810.210144,347.499023 809.247314,344.298828 
z"/>
<path fill="#057AD8" opacity="1.000000" stroke="none" 
	d="
M554.389160,368.368805 
	C555.785156,364.526154 557.719543,361.000763 557.886047,357.393799 
	C558.338074,347.597260 558.041138,337.766144 558.041138,327.589355 
	C562.122253,327.589355 566.010193,327.589355 570.230530,327.589355 
	C570.230530,344.984924 570.230530,362.323517 570.230530,380.109802 
	C566.369141,380.109802 562.486450,380.109802 558.275330,380.109802 
	C558.136597,378.219666 557.988220,376.197723 557.763794,373.140442 
	C553.750305,378.726776 549.021729,381.341553 543.097717,381.822113 
	C532.933899,382.646637 525.199768,377.361267 523.788025,367.282776 
	C522.733765,359.756409 523.088867,352.025024 522.936218,344.382538 
	C522.826660,338.899658 522.914917,333.412842 522.914917,327.579407 
	C526.915405,327.579407 530.647949,327.579407 535.033264,327.579407 
	C535.033264,335.500427 535.018799,343.422516 535.040710,351.344543 
	C535.048950,354.339539 535.017395,357.342896 535.224243,360.327179 
	C535.533386,364.789154 536.594055,369.036713 541.202209,371.011078 
	C545.927612,373.035675 550.308167,372.137085 554.389160,368.368805 
z"/>
<path fill="#077CD8" opacity="1.000000" stroke="none" 
	d="
M469.355103,380.244507 
	C468.972900,379.688568 468.969421,379.274139 468.949280,378.549500 
	C478.825806,364.705963 488.718964,351.172638 499.088379,336.987854 
	C490.226990,336.987854 481.893250,336.987854 473.317017,336.987854 
	C473.317017,333.499969 473.317017,330.605835 473.317017,327.466522 
	C487.442932,327.466522 501.370850,327.466522 516.730103,327.466522 
	C515.640564,330.474976 515.233948,333.375397 513.720764,335.480530 
	C505.376404,347.089569 496.761993,358.504517 487.711975,370.697693 
	C497.334808,370.697693 506.323364,370.697693 515.595215,370.697693 
	C515.595215,374.206451 515.595215,377.116089 515.595215,380.386017 
	C500.287476,380.386017 485.010651,380.386017 469.355103,380.244507 
z"/>
<path fill="#077CD8" opacity="1.000000" stroke="none" 
	d="
M846.157227,357.671143 
	C847.336060,361.353638 848.391479,364.656403 849.789368,369.031036 
	C852.383911,361.310089 854.688660,354.512573 856.950623,347.700897 
	C858.730591,342.340637 860.754028,337.036102 862.105896,331.567474 
	C863.027222,327.840485 864.936462,326.822205 868.431885,327.175537 
	C870.880066,327.423035 873.373474,327.223297 876.599915,327.223297 
	C873.627197,334.983704 870.877563,342.199860 868.099426,349.405060 
	C864.631836,358.398132 861.014404,367.336334 857.729370,376.395294 
	C856.595886,379.521088 855.097839,380.750854 851.628906,380.660522 
	C842.906860,380.433289 842.899963,380.629272 839.738892,372.094055 
	C834.776855,358.696167 829.810364,345.299896 824.867981,331.894775 
	C824.361023,330.519867 824.004456,329.089478 823.561646,327.630798 
	C836.461792,326.136963 836.428955,326.146881 839.936096,337.786285 
	C841.901367,344.308289 843.996948,350.791016 846.157227,357.671143 
z"/>
<path fill="#067BD8" opacity="1.000000" stroke="none" 
	d="
M1021.150513,349.653442 
	C1016.725464,339.843475 1019.983704,331.831421 1029.729980,328.045502 
	C1036.816162,325.292816 1044.100464,325.368622 1051.300903,327.397858 
	C1052.508789,327.738312 1053.750488,329.725220 1054.042236,331.143555 
	C1054.500366,333.370605 1054.163818,335.761078 1054.163818,338.446808 
	C1051.445068,337.507141 1048.960449,336.238342 1046.345215,335.851379 
	C1043.280029,335.397827 1039.867920,334.997284 1037.045898,335.919098 
	C1034.796997,336.653687 1032.079468,339.200836 1031.688965,341.331696 
	C1031.386230,342.984009 1033.956543,345.938873 1035.954712,347.077179 
	C1040.255249,349.527039 1045.135254,350.938324 1049.543945,353.226044 
	C1053.914673,355.494110 1056.539062,359.229431 1056.882446,364.366364 
	C1057.406982,372.213165 1052.970337,378.770416 1044.177246,380.328247 
	C1037.626221,381.488892 1030.705933,380.790924 1023.962646,380.557983 
	C1019.922241,380.418457 1018.224976,377.967743 1018.910645,373.832672 
	C1019.205139,372.056732 1018.959839,370.191254 1018.959839,369.126221 
	C1024.599854,370.282623 1030.119507,371.873779 1035.739624,372.406006 
	C1039.517212,372.763763 1043.938721,371.806366 1044.620361,366.994751 
	C1045.263306,362.456451 1041.365479,360.945251 1037.938477,359.493622 
	C1034.270264,357.939880 1030.464111,356.647156 1026.969849,354.771606 
	C1024.848999,353.633148 1023.204895,351.606445 1021.150513,349.653442 
z"/>
<path fill="#057AD8" opacity="1.000000" stroke="none" 
	d="
M595.409180,327.595825 
	C595.898132,330.333679 596.018799,332.816376 596.169189,335.911346 
	C597.642883,333.967468 598.612000,332.012573 600.163208,330.806519 
	C602.321289,329.128662 604.767273,327.462921 607.352722,326.764832 
	C613.407227,325.130066 614.761108,326.383575 614.770447,332.538971 
	C614.773193,334.338593 614.770935,336.138214 614.770935,337.982422 
	C602.213623,336.359833 596.196472,341.609375 596.052917,354.095245 
	C595.953674,362.727478 596.033875,371.361755 596.033875,380.273254 
	C591.905640,380.273254 588.131592,380.273254 584.017334,380.273254 
	C584.017334,362.723022 584.017334,345.184509 584.017334,327.340729 
	C587.789062,327.340729 591.415039,327.340729 595.409180,327.595825 
z"/>
<path fill="#FDFEFF" opacity="1.000000" stroke="none" 
	d="
M162.381378,367.020538 
	C161.953598,349.414642 161.953598,331.781616 161.953598,313.823303 
	C173.440277,311.653503 184.521988,309.548584 195.608337,307.468475 
	C220.132935,302.866913 244.659897,298.277863 269.617920,293.755646 
	C270.049988,323.062469 270.049988,352.297363 270.049988,381.840820 
	C233.882523,376.833466 198.345856,371.913452 162.381378,367.020538 
z"/>
<path fill="#FBFDFE" opacity="1.000000" stroke="none" 
	d="
M918.573059,316.045898 
	C927.887085,317.530670 933.243958,323.068665 935.750488,331.294952 
	C938.119385,339.069855 938.178284,347.070435 935.870361,354.924347 
	C933.219482,363.945068 927.152649,369.290649 917.815735,370.653534 
	C908.686646,371.986115 900.413147,368.065796 896.085510,359.745789 
	C890.220398,348.469940 890.295593,336.890198 896.759827,325.910553 
	C901.435425,317.969116 909.070251,315.111725 918.573059,316.045898 
z"/>
<path fill="#FBFDFE" opacity="1.000000" stroke="none" 
	d="
M745.376221,363.401306 
	C736.706543,370.736603 726.721924,370.208496 716.408691,369.792664 
	C716.408691,352.188507 716.408691,334.835846 716.408691,317.522644 
	C730.521729,314.143768 744.368713,318.284607 749.752930,327.313324 
	C754.596985,335.436310 755.484802,354.151611 745.376221,363.401306 
z"/>
<path fill="#F3F9FD" opacity="1.000000" stroke="none" 
	d="
M425.783691,345.669922 
	C428.861053,336.743896 431.812256,328.190796 435.038116,318.841705 
	C438.859833,329.848602 442.448822,340.185211 446.217560,351.039520 
	C438.854736,351.039520 431.744476,351.039520 424.146576,351.039520 
	C424.657990,349.348297 425.157745,347.695587 425.783691,345.669922 
z"/>
<path fill="#FAFCFE" opacity="1.000000" stroke="none" 
	d="
M989.176514,371.590118 
	C978.699097,372.756195 972.898865,367.672943 972.771606,357.610046 
	C972.733765,354.618073 972.600586,351.598328 972.924377,348.636505 
	C973.711792,341.433899 979.212463,336.179718 986.004944,335.839203 
	C992.820557,335.497528 997.754211,339.724670 999.403442,347.319031 
	C1001.761108,358.175629 997.851013,367.772034 989.176514,371.590118 
z"/>
<path fill="#F0F7FD" opacity="1.000000" stroke="none" 
	d="
M653.882202,344.500244 
	C654.181396,346.941620 654.660339,348.920105 651.355591,348.850464 
	C644.418579,348.704254 637.476318,348.806061 630.544006,348.806061 
	C630.501953,341.896973 634.992004,336.189606 640.887573,335.203949 
	C647.080261,334.168640 651.356140,337.107544 653.882202,344.500244 
z"/>
<path fill="#F0F7FD" opacity="1.000000" stroke="none" 
	d="
M809.356079,344.680664 
	C810.210144,347.499023 809.660278,348.870087 806.761597,348.836487 
	C799.822815,348.756012 792.882446,348.810516 785.939941,348.810516 
	C786.059387,341.552887 790.330261,336.199188 796.592102,335.175690 
	C802.755005,334.168365 806.902283,337.158142 809.356079,344.680664 
z"/>
</svg>