<svg xmlns="http://www.w3.org/2000/svg" width="800" height="600" viewBox="0 0 800 600">
<g>
<path d="M 733.08 222.08 C729.47,225.68 725.76,225.85 722.45,222.55 C719.45,219.54 719.18,214.23 721.87,210.91 C724.64,207.49 730.49,207.71 733.63,211.36 C736.82,215.06 736.64,218.52 733.08,222.08 ZM 723.40 220.61 C724.21,222.70 726.00,222.28 726.00,220.00 C726.00,218.90 726.62,218.00 727.38,218.00 C728.14,218.00 729.00,218.90 729.29,220.00 C730.34,224.00 731.86,221.94 731.68,216.75 L 731.50 211.50 L 727.50 211.50 C723.58,211.50 723.49,211.58 723.18,215.36 C723.01,217.48 723.11,219.84 723.40,220.61 ZM 460.53 329.94 C463.03,330.69 462.55,330.83 457.50,330.82 C452.41,330.82 451.96,330.69 454.53,329.94 C456.29,329.43 458.81,329.43 460.53,329.94 ZM 729.00 214.50 C729.00,216.05 727.82,216.49 726.69,215.36 C725.89,214.56 726.80,213.00 728.06,213.00 C728.58,213.00 729.00,213.68 729.00,214.50 Z" fill="rgb(214,122,107)"/>
<path d="M 0.00 0.00 L 800.00 0.00 L 800.00 600.00 L 0.00 600.00 ZM 448.00 360.08 C460.41,361.49 474.66,359.67 486.00,355.22 C503.81,348.23 521.80,331.15 529.13,314.26 C534.84,301.11 535.37,298.33 535.37,281.50 C535.36,264.35 534.47,260.07 528.30,247.50 C519.21,228.99 503.21,215.07 482.45,207.60 C474.65,204.80 472.66,204.40 462.00,203.52 C434.94,201.29 405.05,216.41 391.17,239.36 C371.64,271.65 376.11,311.87 402.13,337.87 C414.33,350.05 431.03,358.14 448.00,360.08 ZM 149.83 432.05 C152.40,432.52 158.77,432.71 164.00,432.49 C192.64,431.24 218.36,414.12 231.47,387.57 C239.11,372.10 239.16,371.60 238.81,314.59 L 238.50 264.50 L 235.78 256.81 C231.69,245.27 225.53,235.70 215.85,225.90 C208.10,218.04 206.02,216.56 195.85,211.66 C183.40,205.65 172.78,203.00 161.23,203.00 C131.94,203.01 104.25,219.16 91.79,243.50 C84.00,258.72 82.48,265.10 82.61,282.00 C82.70,294.97 83.00,297.34 85.42,304.50 C93.85,329.35 108.81,345.40 132.34,354.83 C143.32,359.23 150.02,360.13 169.50,359.79 L 186.50 359.50 L 186.50 331.50 L 169.50 330.91 C160.15,330.59 150.48,329.76 148.00,329.07 C136.85,325.96 126.10,317.89 119.61,307.75 C114.77,300.18 112.84,293.78 112.25,283.36 C111.83,275.90 112.12,272.95 113.84,267.32 C116.35,259.05 122.59,249.39 128.63,244.45 C143.54,232.23 163.94,229.47 180.67,237.42 C194.06,243.78 201.79,251.86 206.81,264.76 L 209.43 271.50 L 209.78 314.21 C209.98,340.25 209.72,359.05 209.11,362.38 C206.38,377.14 195.72,390.59 181.00,397.86 C171.01,402.78 162.80,404.01 152.84,402.05 C145.87,400.68 136.31,396.22 131.02,391.86 C129.11,390.29 127.09,389.00 126.54,389.00 C124.78,389.00 107.00,407.39 107.00,409.22 C107.00,411.63 116.94,419.33 126.07,423.98 C133.76,427.90 141.43,430.50 149.83,432.05 ZM 680.67 428.33 C681.03,428.70 687.28,429.00 694.54,429.00 C704.73,429.00 708.02,428.68 708.93,427.58 C709.82,426.51 710.02,406.80 709.76,347.33 C709.41,269.19 709.38,268.44 707.18,261.17 C703.01,247.45 696.96,237.25 686.79,226.78 C679.77,219.55 672.74,214.69 662.59,210.04 C652.03,205.20 644.14,203.65 630.50,203.72 C616.27,203.80 605.48,206.52 592.52,213.32 C582.33,218.66 567.99,232.60 563.50,241.53 C561.85,244.81 559.78,248.62 558.89,250.00 C557.25,252.55 556.95,253.57 554.48,265.00 C551.55,278.55 553.53,304.17 558.15,312.42 C558.75,313.48 560.38,316.40 561.77,318.92 C571.06,335.64 582.50,346.22 599.74,354.04 C610.98,359.13 618.35,360.33 639.00,360.42 L 657.50 360.50 L 657.50 331.50 L 639.00 330.90 C618.73,330.25 614.68,329.36 605.50,323.49 C599.68,319.77 591.01,310.86 588.52,306.03 C578.00,285.69 581.21,262.80 596.74,247.36 C603.36,240.77 610.10,236.99 619.63,234.51 C644.44,228.05 671.92,244.41 678.47,269.53 C679.78,274.57 680.00,286.38 680.00,351.54 C680.00,393.41 680.30,427.97 680.67,428.33 ZM 460.53 329.94 C458.81,329.43 456.29,329.43 454.53,329.94 C453.48,330.24 452.93,330.45 453.00,330.58 C449.97,330.42 447.17,330.06 445.10,329.48 C430.00,325.24 416.56,312.82 411.42,298.34 C409.14,291.92 408.38,276.34 410.04,270.22 C413.86,256.14 422.93,244.81 435.37,238.58 C449.28,231.61 464.70,231.49 479.00,238.25 C487.94,242.48 497.67,252.29 502.08,261.52 C505.14,267.94 505.44,269.44 505.81,280.13 C506.11,289.08 505.85,292.55 504.68,295.13 C503.84,296.99 502.85,299.58 502.47,300.89 C499.90,309.78 485.64,324.10 477.00,326.47 C475.62,326.85 472.95,327.86 471.06,328.72 C469.13,329.59 465.75,330.18 461.95,330.47 C461.79,330.34 461.30,330.17 460.53,329.94 ZM 263.25 357.18 C264.98,358.27 288.17,358.18 289.92,357.07 C291.11,356.32 291.41,348.99 291.72,313.33 C292.08,273.18 292.23,270.07 294.21,263.63 C297.62,252.57 304.39,244.80 315.53,239.18 C324.23,234.80 329.35,233.65 340.00,233.68 C347.43,233.71 351.09,234.25 356.80,236.20 L 364.09 238.68 L 366.61 235.69 C367.99,234.05 370.42,230.18 372.01,227.10 C373.60,224.02 375.82,220.15 376.94,218.50 C378.07,216.85 378.99,215.02 378.99,214.43 C379.00,213.43 371.72,209.75 364.00,206.86 C350.27,201.72 328.13,202.18 311.44,207.96 C301.64,211.36 298.03,213.18 291.48,218.01 C279.54,226.83 270.59,238.70 265.48,252.50 C263.26,258.49 262.73,262.17 261.84,278.00 C260.49,301.82 261.46,356.04 263.25,357.18 ZM 723.50 226.46 C727.09,228.29 729.38,228.39 732.32,226.86 C738.27,223.77 740.57,216.94 737.60,211.19 C735.68,207.48 733.21,205.98 728.73,205.82 C722.00,205.56 717.06,210.13 717.02,216.64 C717.00,221.27 718.87,224.11 723.50,226.46 Z" fill="rgb(227,92,68)"/>
<path d="M 723.50 226.46 C718.87,224.11 717.00,221.27 717.02,216.64 C717.06,210.13 722.00,205.56 728.73,205.82 C733.21,205.98 735.68,207.48 737.60,211.19 C740.57,216.94 738.27,223.77 732.32,226.86 C729.38,228.39 727.09,228.29 723.50,226.46 ZM 733.08 222.08 C736.64,218.52 736.82,215.06 733.63,211.36 C730.49,207.71 724.64,207.49 721.87,210.91 C719.18,214.23 719.45,219.54 722.45,222.55 C725.76,225.85 729.47,225.68 733.08,222.08 ZM 723.40 220.61 C723.11,219.84 723.01,217.48 723.18,215.36 C723.49,211.58 723.58,211.50 727.50,211.50 L 731.50 211.50 L 731.56 213.16 C731.40,213.06 731.21,213.00 731.00,213.00 C730.45,213.00 730.00,213.70 730.00,214.56 C730.00,215.42 730.45,215.84 731.00,215.50 C731.23,215.36 731.45,215.15 731.62,214.92 L 731.68 216.75 C731.86,221.94 730.34,224.00 729.29,220.00 C729.00,218.90 728.14,218.00 727.38,218.00 C726.62,218.00 726.00,218.90 726.00,220.00 C726.00,222.28 724.21,222.70 723.40,220.61 ZM 736.00 216.59 C736.00,220.48 737.49,220.46 738.23,216.56 C738.52,215.05 738.18,213.90 737.35,213.58 C736.37,213.21 736.00,214.04 736.00,216.59 ZM 729.00 214.50 C729.00,213.68 728.58,213.00 728.06,213.00 C726.80,213.00 725.89,214.56 726.69,215.36 C727.82,216.49 729.00,216.05 729.00,214.50 Z" fill="rgb(244,197,183)"/>
<path d="M 149.83 432.05 C141.43,430.50 133.76,427.90 126.07,423.98 C116.94,419.33 107.00,411.63 107.00,409.22 C107.00,407.39 124.78,389.00 126.54,389.00 C127.09,389.00 129.11,390.29 131.02,391.86 C136.31,396.22 145.87,400.68 152.84,402.05 C162.80,404.01 171.01,402.78 181.00,397.86 C195.72,390.59 206.38,377.14 209.11,362.38 C209.72,359.05 209.98,340.25 209.78,314.21 L 209.43 271.50 L 206.81 264.76 C201.79,251.86 194.06,243.78 180.67,237.42 C163.94,229.47 143.54,232.23 128.63,244.45 C122.59,249.39 116.35,259.05 113.84,267.32 C112.12,272.95 111.83,275.90 112.25,283.36 C112.84,293.78 114.77,300.18 119.61,307.75 C126.10,317.89 136.85,325.96 148.00,329.07 C150.48,329.76 160.15,330.59 169.50,330.91 L 186.50 331.50 L 186.50 345.50 L 186.50 359.50 L 169.50 359.79 C150.02,360.13 143.32,359.23 132.34,354.83 C108.81,345.40 93.85,329.35 85.42,304.50 C83.00,297.34 82.70,294.97 82.61,282.00 C82.48,265.10 84.00,258.72 91.79,243.50 C104.25,219.16 131.94,203.01 161.23,203.00 C172.78,203.00 183.40,205.65 195.85,211.66 C206.02,216.56 208.10,218.04 215.85,225.90 C225.53,235.70 231.69,245.27 235.78,256.81 L 238.50 264.50 L 238.81 314.59 C239.16,371.60 239.11,372.10 231.47,387.57 C218.36,414.12 192.64,431.24 164.00,432.49 C158.77,432.71 152.40,432.52 149.83,432.05 ZM 680.67 428.33 C680.30,427.97 680.00,393.41 680.00,351.54 C680.00,286.38 679.78,274.57 678.47,269.53 C671.92,244.41 644.44,228.05 619.63,234.51 C610.10,236.99 603.36,240.77 596.74,247.36 C581.21,262.80 578.00,285.69 588.52,306.03 C591.01,310.86 599.68,319.77 605.50,323.49 C614.68,329.36 618.73,330.25 639.00,330.90 L 657.50 331.50 L 657.50 346.00 L 657.50 360.50 L 639.00 360.42 C618.35,360.33 610.98,359.13 599.74,354.04 C582.50,346.22 571.06,335.64 561.77,318.92 C560.38,316.40 558.75,313.48 558.15,312.42 C553.53,304.17 551.55,278.55 554.48,265.00 C556.95,253.57 557.25,252.55 558.89,250.00 C559.78,248.62 561.85,244.81 563.50,241.53 C567.99,232.60 582.33,218.66 592.52,213.32 C605.48,206.52 616.27,203.80 630.50,203.72 C644.14,203.65 652.03,205.20 662.59,210.04 C672.74,214.69 679.77,219.55 686.79,226.78 C696.96,237.25 703.01,247.45 707.18,261.17 C709.38,268.44 709.41,269.19 709.76,347.33 C710.02,406.80 709.82,426.51 708.93,427.58 C708.02,428.68 704.73,429.00 694.54,429.00 C687.28,429.00 681.03,428.70 680.67,428.33 ZM 448.00 360.08 C431.03,358.14 414.33,350.05 402.13,337.87 C376.11,311.87 371.64,271.65 391.17,239.36 C405.05,216.41 434.94,201.29 462.00,203.52 C472.66,204.40 474.65,204.80 482.45,207.60 C503.21,215.07 519.21,228.99 528.30,247.50 C534.47,260.07 535.36,264.35 535.37,281.50 C535.37,298.33 534.84,301.11 529.13,314.26 C521.80,331.15 503.81,348.23 486.00,355.22 C474.66,359.67 460.41,361.49 448.00,360.08 ZM 471.06 328.72 C472.95,327.86 475.62,326.85 477.00,326.47 C485.64,324.10 499.90,309.78 502.47,300.89 C502.85,299.58 503.84,296.99 504.68,295.13 C505.85,292.55 506.11,289.08 505.81,280.13 C505.44,269.44 505.14,267.94 502.08,261.52 C497.67,252.29 487.94,242.48 479.00,238.25 C464.70,231.49 449.28,231.61 435.37,238.58 C422.93,244.81 413.86,256.14 410.04,270.22 C408.38,276.34 409.14,291.92 411.42,298.34 C416.56,312.82 430.00,325.24 445.10,329.48 C451.80,331.36 466.15,330.94 471.06,328.72 ZM 263.25 357.18 C261.46,356.04 260.49,301.82 261.84,278.00 C262.73,262.17 263.26,258.49 265.48,252.50 C270.59,238.70 279.54,226.83 291.48,218.01 C298.03,213.18 301.64,211.36 311.44,207.96 C328.13,202.18 350.27,201.72 364.00,206.86 C371.72,209.75 379.00,213.43 378.99,214.43 C378.99,215.02 378.07,216.85 376.94,218.50 C375.82,220.15 373.60,224.02 372.01,227.10 C370.42,230.18 367.99,234.05 366.61,235.69 L 364.09 238.68 L 356.80 236.20 C351.09,234.25 347.43,233.71 340.00,233.68 C329.35,233.65 324.23,234.80 315.53,239.18 C304.39,244.80 297.62,252.57 294.21,263.63 C292.23,270.07 292.08,273.18 291.72,313.33 C291.41,348.99 291.11,356.32 289.92,357.07 C288.17,358.18 264.98,358.27 263.25,357.18 ZM 736.00 216.59 C736.00,214.04 736.37,213.21 737.35,213.58 C738.18,213.90 738.52,215.05 738.23,216.56 C737.49,220.46 736.00,220.48 736.00,216.59 ZM 730.00 214.56 C730.00,213.70 730.45,213.00 731.00,213.00 C731.55,213.00 732.00,213.42 732.00,213.94 C732.00,214.46 731.55,215.16 731.00,215.50 C730.45,215.84 730.00,215.42 730.00,214.56 Z" fill="rgb(253,253,252)"/>
</g>
</svg>