<svg version="1.1" id="Layer_1" xmlns="http://www.w3.org/2000/svg" xmlns:xlink="http://www.w3.org/1999/xlink" x="0px" y="0px"
	 width="100%" viewBox="0 0 678 452" enable-background="new 0 0 678 452" xml:space="preserve">
<path fill="#FFFFFF" opacity="1.000000" stroke="none" 
	d="
M477.000000,453.000000 
	C318.000000,453.000000 159.500000,453.000000 1.000000,453.000000 
	C1.000000,302.333344 1.000000,151.666672 1.000000,1.000000 
	C227.000000,1.000000 453.000000,1.000000 679.000000,1.000000 
	C679.000000,151.666672 679.000000,302.333344 679.000000,453.000000 
	C611.833313,453.000000 544.666687,453.000000 477.000000,453.000000 
M304.214355,349.077148 
	C303.519958,348.483398 302.849792,347.857819 302.123749,347.305695 
	C301.505035,346.835266 300.821991,346.449402 300.167389,346.026123 
	C299.124237,348.028534 298.081055,350.030945 296.313721,351.912201 
	C291.484039,347.466095 289.864655,347.623138 283.705139,353.227173 
	C283.478333,352.395966 283.270050,351.632629 283.264618,349.994202 
	C283.124634,347.951080 282.984650,345.907959 282.844666,343.864838 
	C282.228607,343.880341 281.612579,343.895874 280.996552,343.911377 
	C280.996552,347.604614 280.996552,351.297821 280.763123,355.728668 
	C280.439606,356.207947 279.854340,357.119843 279.829712,357.104950 
	C277.471222,355.678223 275.155426,354.180969 271.853729,352.055237 
	C273.756287,351.784668 274.689911,351.591980 275.631836,351.533691 
	C276.717224,351.466522 277.809967,351.518097 278.899536,351.518097 
	C275.992859,348.385986 272.390198,347.585968 270.473419,351.021851 
	C267.241302,356.815521 274.720032,355.468506 277.096619,359.320343 
	C273.464417,359.320343 270.696472,359.320343 268.087036,358.420929 
	C268.116486,349.594208 268.116486,349.594208 257.283447,349.650269 
	C257.283447,353.770691 257.283447,357.853821 257.283447,361.936981 
	C257.906982,361.904114 258.530518,361.871246 259.154053,361.838379 
	C259.154053,359.978699 258.789429,358.019470 259.261902,356.288788 
	C259.690277,354.719574 260.817535,352.419403 262.010651,352.159698 
	C265.149261,351.476593 265.153473,354.164642 265.187744,356.389862 
	C265.208252,357.719727 265.066315,359.080383 265.339264,360.353912 
	C265.392853,360.603882 267.015106,360.517670 268.643188,359.940460 
	C272.156799,362.049133 275.650970,363.364563 279.244080,360.007202 
	C279.434753,359.829071 280.435242,360.517639 281.126282,361.464722 
	C281.771454,361.021606 282.416626,360.578491 283.306732,359.393188 
	C284.213135,355.333405 285.109497,358.981293 285.656769,359.494171 
	C289.472412,363.070007 294.584686,362.840637 296.367340,358.588196 
	C297.189392,356.627197 296.754913,354.139496 297.759552,352.029999 
	C298.312164,353.612183 299.029572,355.158630 299.382172,356.784180 
	C300.062042,359.918518 300.581177,363.039581 305.412140,361.696594 
	C306.008759,361.767822 306.605408,361.839050 307.957306,361.863983 
	C308.486725,360.009277 308.836151,358.076202 309.599274,356.323242 
	C310.280823,354.757690 311.419250,353.391022 312.356079,351.936584 
	C313.468323,353.432526 314.933960,354.789276 315.593597,356.463531 
	C316.255219,358.142792 316.113037,360.138763 316.323181,361.995911 
	C317.092499,361.904938 317.861816,361.813934 318.631134,361.722931 
	C318.130524,358.002350 318.220520,354.038055 316.835938,350.682190 
	C316.289124,349.356842 312.457886,349.386566 309.813263,348.721619 
	C309.529938,347.567108 309.057800,345.643311 308.585663,343.719513 
	C308.062439,343.852997 307.539215,343.986450 307.015961,344.119934 
	C306.895813,345.735840 306.775635,347.351715 306.069855,348.930725 
	C305.680878,348.967682 305.291931,349.004608 304.214355,349.077148 
M232.475006,361.464752 
	C232.665558,360.313782 232.856125,359.162842 233.367096,357.301453 
	C235.019012,345.742920 227.944656,335.563690 216.383453,333.302734 
	C204.426788,331.949890 196.262405,336.944489 192.008331,348.826874 
	C189.423676,361.471497 195.594269,371.636017 208.540359,374.859680 
	C216.157791,371.380371 223.789902,367.932098 231.360168,364.353088 
	C231.874161,364.110107 231.923294,362.883850 232.475006,361.464752 
M392.118164,355.641174 
	C395.104706,359.334259 395.858154,365.185242 402.725098,365.979248 
	C408.012665,363.746582 409.480560,358.668274 406.761444,351.353668 
	C403.895569,343.644165 397.268616,340.818726 391.365509,347.913513 
	C384.960022,341.665375 379.219910,342.867218 376.065735,351.250122 
	C375.393616,353.036377 375.382263,355.071228 374.881165,357.804047 
	C374.610107,361.368561 375.370270,364.603699 379.131744,365.776337 
	C383.003357,366.983276 385.151794,364.211090 387.130615,361.440369 
	C388.697144,359.246918 390.350342,357.115387 392.118164,355.641174 
M433.994354,351.923706 
	C433.983704,355.561096 433.853271,359.204834 434.045013,362.831512 
	C434.094116,363.760651 435.161011,364.636017 435.760345,365.536072 
	C436.211151,364.647095 437.034698,363.765472 437.052429,362.867950 
	C437.169281,356.947296 437.112793,351.023193 437.112793,344.143494 
	C435.273804,344.942261 434.005280,345.493256 432.175842,346.398376 
	C430.282562,349.799255 428.389282,353.200134 426.135040,357.249329 
	C424.008301,353.421814 422.441650,350.141418 420.405762,347.184021 
	C419.675842,346.123749 417.813690,345.842926 416.468292,345.206360 
	C415.977539,346.289642 415.121674,347.353729 415.063568,348.459747 
	C414.880219,351.949432 414.926666,355.456696 415.022705,358.953369 
	C415.077454,360.946838 415.402039,362.932922 415.605133,364.922333 
	C416.282288,364.942169 416.959442,364.962006 417.636597,364.981842 
	C417.894043,360.298981 418.151520,355.616089 418.466003,349.895752 
	C420.339874,353.203491 421.669189,355.632874 423.077118,358.015839 
	C425.203461,361.614716 426.822418,361.609680 429.062073,358.181793 
	C430.661163,355.734283 432.416870,353.389099 433.994354,351.923706 
M272.936188,129.902115 
	C272.993866,133.601929 273.051544,137.301743 272.992340,141.821625 
	C273.404388,144.100388 273.673096,146.416199 274.250824,148.652145 
	C279.523712,169.059341 303.365784,171.195267 314.349945,159.213760 
	C316.698547,156.651932 319.158478,154.091904 320.980591,151.165802 
	C327.453094,140.771942 333.672089,130.220215 340.617493,120.070068 
	C346.664185,129.755142 352.710846,139.440231 358.976776,149.782364 
	C363.178986,155.764282 367.362885,161.765533 374.628662,164.519180 
	C374.628662,164.519180 374.681091,164.527924 375.034485,164.919022 
	C375.552368,165.025665 376.070221,165.132294 377.255829,165.831604 
	C384.980560,166.268066 392.940796,167.720062 399.563293,160.531662 
	C401.777008,156.144928 405.176575,151.968552 405.998505,147.334930 
	C409.492554,127.637543 406.636627,108.798637 394.788391,92.262856 
	C380.489105,72.306358 361.698303,71.990517 345.981659,90.844070 
	C344.563171,92.545662 342.747559,93.916199 340.907043,94.830887 
	C340.602692,94.554337 340.298309,94.277794 339.805603,93.355392 
	C336.877258,90.427826 334.158630,87.247162 330.983948,84.616936 
	C317.941101,73.811020 302.819763,74.537506 290.807556,86.467453 
	C282.832550,94.387833 278.091003,104.099876 275.147919,115.559952 
	C274.468445,120.037994 273.788971,124.516029 272.936188,129.902115 
M334.681183,224.914139 
	C323.918579,212.362823 309.369659,214.221405 294.437164,230.197311 
	C290.951630,221.558548 284.527863,217.227127 275.301788,216.951675 
	C266.467316,216.687912 259.498169,220.348373 253.524536,228.707718 
	C253.524536,224.309464 253.524536,221.697021 253.524536,218.876160 
	C249.257889,218.876160 245.332138,218.876160 241.403320,218.876160 
	C241.403320,239.689926 241.403320,260.259430 241.403320,280.789429 
	C245.573212,280.789429 249.472412,280.789429 253.646805,280.789429 
	C253.646805,269.340546 253.857544,258.202301 253.560822,247.077576 
	C253.404633,241.221725 255.767883,236.836823 259.687714,232.954849 
	C264.476746,228.212036 270.416473,227.489380 276.364563,229.408493 
	C281.981232,231.220627 283.603363,236.457321 283.918945,241.803391 
	C284.271790,247.780045 284.168884,253.785446 284.201935,259.778687 
	C284.240295,266.733826 284.210876,273.689301 284.210876,280.873047 
	C288.489594,280.873047 292.388062,280.873047 296.712006,280.873047 
	C296.712006,269.027008 296.692261,257.408447 296.719696,245.790009 
	C296.735291,239.187592 301.403839,232.315689 307.502228,229.787933 
	C317.766418,225.533493 326.030334,230.475540 326.948669,241.575317 
	C327.291138,245.714645 327.220215,249.892639 327.238037,254.053421 
	C327.276337,262.990479 327.249786,271.927795 327.249786,280.817749 
	C331.753357,280.817749 335.671143,280.817749 339.711426,280.817749 
	C339.711426,267.737061 340.169128,254.921677 339.500610,242.165329 
	C339.206848,236.560791 336.618835,231.076492 334.681183,224.914139 
M467.487946,205.429672 
	C471.999146,205.429672 476.510315,205.429672 480.315094,205.429672 
	C474.716461,211.569916 469.711578,218.092026 463.640228,223.392609 
	C458.732208,227.677536 458.132568,232.222473 459.182983,238.079773 
	C465.300476,238.079773 471.324646,237.425583 477.142975,238.240784 
	C484.899231,239.327515 489.628265,245.526215 489.910431,253.242447 
	C490.195312,261.034515 485.969513,267.528259 478.584747,269.509399 
	C469.206421,272.025360 460.401733,270.870483 453.098267,263.745361 
	C451.339508,262.029480 449.707275,260.183838 447.795471,258.164001 
	C444.701385,260.971832 441.784454,263.618927 438.839539,266.291382 
	C448.791412,280.287506 462.345520,284.327942 478.442719,282.146851 
	C492.133606,280.291809 502.268951,270.228699 503.110748,257.442322 
	C504.137970,241.838928 496.651031,231.324158 481.865662,227.609146 
	C480.363342,227.231659 478.857635,226.867691 477.353485,226.497452 
	C477.758087,226.764267 478.162720,227.031097 478.567322,227.297913 
	C483.991577,221.228531 488.939667,214.622742 494.986389,209.254486 
	C500.092804,204.721039 501.034180,199.874313 499.757111,193.802368 
	C481.060822,193.802368 462.387787,193.802368 443.775818,193.802368 
	C443.775818,197.847565 443.775818,201.433044 443.775818,205.429199 
	C451.569702,205.429199 459.031036,205.429199 467.487946,205.429672 
M606.977966,269.719604 
	C605.231750,269.468994 603.486633,269.010956 601.739075,269.001373 
	C590.004028,268.936951 578.268433,268.967804 565.354736,268.967804 
	C570.489929,264.242584 574.855957,260.473145 578.936035,256.416016 
	C586.122925,249.269577 593.875854,242.521774 600.046021,234.563675 
	C609.171631,222.793655 606.702087,206.411469 595.691650,197.907166 
	C579.198669,185.168182 552.333801,192.703552 544.553589,212.504349 
	C547.595520,214.550964 550.689270,216.632401 553.931152,218.813492 
	C555.546387,216.535751 556.559875,214.266022 558.278687,212.856445 
	C561.932007,209.860474 565.609802,206.417252 569.897156,204.776627 
	C577.506531,201.864822 585.447937,204.465515 589.317749,209.855164 
	C593.195923,215.256409 592.793701,223.444077 588.097168,229.924042 
	C586.349060,232.336014 584.301941,234.579666 582.138245,236.633682 
	C572.356934,245.919388 562.798523,255.479675 552.521301,264.187378 
	C546.898743,268.951263 545.468140,274.081146 547.078552,280.839996 
	C566.946838,280.839996 586.842468,280.839996 607.099487,280.839996 
	C607.099487,277.269592 607.099487,273.973694 606.977966,269.719604 
M217.518005,221.921371 
	C203.212860,212.739365 182.838287,216.436493 174.569519,229.987656 
	C177.179489,232.113937 179.827179,234.270950 182.443649,236.402512 
	C190.388016,228.625931 199.994354,226.220901 207.436737,229.958450 
	C212.456223,232.479233 214.615372,237.255280 213.812119,244.634247 
	C208.262024,244.634247 202.626511,244.321289 197.043457,244.728271 
	C192.131363,245.086334 187.058731,245.614441 182.449432,247.204819 
	C175.330368,249.661148 171.339447,256.742889 171.562225,264.547455 
	C171.784012,272.317047 175.609146,278.526398 182.566513,280.724609 
	C193.259018,284.102875 203.246643,282.718842 211.706329,274.670563 
	C212.471405,273.942688 213.251099,273.230164 214.528915,272.040405 
	C214.738968,275.495850 214.903809,278.207397 215.065475,280.866943 
	C219.031525,280.866943 222.636429,280.866943 226.190872,280.866943 
	C226.190872,266.529785 226.349548,252.422638 226.119629,238.321838 
	C226.014771,231.890701 223.138321,226.488495 217.518005,221.921371 
M372.326447,217.668442 
	C364.287415,218.934555 357.958191,222.800278 353.294861,229.842087 
	C356.233063,232.209488 358.871185,234.335098 361.464569,236.424683 
	C369.005920,228.614792 379.038940,226.163773 386.555359,230.015900 
	C391.488617,232.544159 393.670624,237.651855 392.620026,244.638916 
	C387.213257,244.638916 381.732391,244.339783 376.300568,244.727448 
	C371.382111,245.078476 366.309875,245.554504 361.676483,247.092911 
	C354.476715,249.483429 350.275696,256.545166 350.381775,264.230072 
	C350.489410,272.028900 354.581055,278.634979 361.650909,280.789185 
	C372.349487,284.049072 382.349030,282.725189 390.715515,274.509094 
	C391.453217,273.784668 392.254425,273.124878 393.495636,272.015320 
	C393.695190,275.478943 393.852142,278.202942 394.002716,280.816528 
	C397.986664,280.816528 401.573578,280.816528 405.089264,280.816528 
	C405.089264,266.252747 405.496094,251.952881 404.953217,237.689163 
	C404.559204,227.336273 397.313690,219.720947 387.026764,217.946121 
	C382.517212,217.168091 377.801300,217.585983 372.326447,217.668442 
M76.004944,193.459915 
	C75.396149,195.062805 74.263527,196.663483 74.256744,198.268921 
	C74.146362,224.391693 74.175270,250.515091 74.187416,276.638336 
	C74.188087,278.072968 74.317055,279.507538 74.378258,280.775452 
	C94.531960,280.775452 114.247231,280.775452 133.907745,280.775452 
	C133.907745,276.650299 133.907745,272.862183 133.907745,268.643860 
	C118.499397,268.643860 103.269981,268.643860 87.447952,268.643860 
	C87.447952,243.361511 87.447952,218.504150 87.447952,193.444244 
	C83.535187,193.444244 80.221268,193.444244 76.004944,193.459915 
M159.972015,206.501923 
	C159.972015,201.035843 159.972015,195.569763 159.972015,190.140594 
	C155.634155,190.140594 151.586411,190.140594 147.646423,190.140594 
	C147.646423,220.577347 147.646423,250.644302 147.646423,280.911377 
	C151.773804,280.911377 155.682755,280.911377 159.972015,280.911377 
	C159.972015,256.320068 159.972015,231.910538 159.972015,206.501923 
M526.106506,264.625854 
	C520.005859,264.784851 516.801392,266.860901 515.947754,271.207367 
	C514.860962,276.740723 517.371277,281.074310 522.404724,282.354095 
	C527.574768,283.668640 532.174377,281.063293 533.585205,276.020996 
	C535.035095,270.839447 532.555115,266.694275 526.106506,264.625854 
M471.558655,351.184265 
	C470.776245,352.427032 469.283936,353.709900 469.351379,354.904663 
	C469.519470,357.880707 469.731995,361.236023 471.231934,363.616638 
	C472.181427,365.123627 475.439026,365.500763 477.728424,365.737762 
	C479.603577,365.931854 481.577637,365.170044 484.106812,364.727112 
	C484.106812,361.195251 484.174042,357.080322 484.042358,352.971832 
	C484.019775,352.266327 483.185272,351.020935 482.665985,350.988708 
	C479.184814,350.772552 475.687469,350.817261 471.558655,351.184265 
M444.811707,361.558105 
	C443.491150,359.824921 443.721893,358.909119 446.099487,358.949982 
	C449.038544,359.000549 451.979187,358.962097 455.012207,358.962097 
	C455.075928,354.319092 454.156311,350.762177 449.416321,349.829559 
	C445.782227,349.114532 442.696869,350.371246 441.062866,353.739258 
	C439.350616,357.268555 440.829315,362.948944 443.743225,364.674805 
	C447.560181,366.935455 451.183777,366.611938 455.070343,362.845123 
	C451.379120,362.582214 448.393738,362.369537 444.811707,361.558105 
M462.839935,365.883118 
	C464.260803,365.503784 465.681671,365.124451 467.102539,364.745087 
	C466.092682,364.095093 464.934784,363.589630 464.117004,362.752045 
	C463.385406,362.002777 462.677765,360.922668 462.577850,359.926483 
	C462.351624,357.671417 462.506683,355.378082 462.506683,353.730774 
	C464.626038,352.713562 466.046509,352.031799 467.466949,351.350067 
	C467.328522,350.939941 467.190063,350.529846 467.051636,350.119751 
	C465.637756,349.987061 464.223877,349.854370 463.395020,349.776581 
	C462.399719,347.860962 461.633545,346.386414 460.933777,345.039642 
	C458.920654,347.756317 457.586884,349.556183 457.018402,350.323334 
	C457.844910,353.689117 458.352539,356.471954 459.235443,359.130157 
	C459.970184,361.342346 461.145752,363.408081 462.839935,365.883118 
M254.361099,360.926880 
	C254.361099,356.958527 254.361099,352.990173 254.361099,349.021851 
	C253.660355,348.988770 252.959595,348.955688 252.258850,348.922638 
	C252.090012,350.904175 252.255737,352.996124 251.649536,354.833405 
	C251.138336,356.382690 249.730835,357.636230 248.720078,359.020721 
	C247.692322,357.642670 246.339432,356.391479 245.736923,354.847473 
	C245.230652,353.549988 245.810577,351.862579 245.484039,350.445892 
	C245.334732,349.798065 244.162109,349.386078 243.073853,348.588989 
	C242.418091,360.230225 242.417709,360.232941 252.385178,361.640320 
	C252.858200,361.707092 253.348694,361.650146 254.361099,360.926880 
M348.022430,337.958984 
	C347.734314,337.334808 347.446198,336.710663 346.570312,334.813324 
	C346.570312,348.641876 346.570312,360.994720 346.570312,373.347534 
	C347.061523,373.348145 347.552704,373.348755 348.043915,373.349396 
	C348.043915,361.857269 348.043915,350.365173 348.022430,337.958984 
z"/>
<path fill="#090909" opacity="1.000000" stroke="none" 
	d="
M334.876892,225.225861 
	C336.618835,231.076492 339.206848,236.560791 339.500610,242.165329 
	C340.169128,254.921677 339.711426,267.737061 339.711426,280.817749 
	C335.671143,280.817749 331.753357,280.817749 327.249786,280.817749 
	C327.249786,271.927795 327.276337,262.990479 327.238037,254.053421 
	C327.220215,249.892639 327.291138,245.714645 326.948669,241.575317 
	C326.030334,230.475540 317.766418,225.533493 307.502228,229.787933 
	C301.403839,232.315689 296.735291,239.187592 296.719696,245.790009 
	C296.692261,257.408447 296.712006,269.027008 296.712006,280.873047 
	C292.388062,280.873047 288.489594,280.873047 284.210876,280.873047 
	C284.210876,273.689301 284.240295,266.733826 284.201935,259.778687 
	C284.168884,253.785446 284.271790,247.780045 283.918945,241.803391 
	C283.603363,236.457321 281.981232,231.220627 276.364563,229.408493 
	C270.416473,227.489380 264.476746,228.212036 259.687714,232.954849 
	C255.767883,236.836823 253.404633,241.221725 253.560822,247.077576 
	C253.857544,258.202301 253.646805,269.340546 253.646805,280.789429 
	C249.472412,280.789429 245.573212,280.789429 241.403320,280.789429 
	C241.403320,260.259430 241.403320,239.689926 241.403320,218.876160 
	C245.332138,218.876160 249.257889,218.876160 253.524536,218.876160 
	C253.524536,221.697021 253.524536,224.309464 253.524536,228.707718 
	C259.498169,220.348373 266.467316,216.687912 275.301788,216.951675 
	C284.527863,217.227127 290.951630,221.558548 294.437164,230.197311 
	C309.369659,214.221405 323.918579,212.362823 334.876892,225.225861 
z"/>
<path fill="#0D6BE1" opacity="1.000000" stroke="none" 
	d="
M466.990173,205.429443 
	C459.031036,205.429199 451.569702,205.429199 443.775818,205.429199 
	C443.775818,201.433044 443.775818,197.847565 443.775818,193.802368 
	C462.387787,193.802368 481.060822,193.802368 499.757111,193.802368 
	C501.034180,199.874313 500.092804,204.721039 494.986389,209.254486 
	C488.939667,214.622742 483.991577,221.228531 478.567322,227.297913 
	C478.162720,227.031097 477.758087,226.764267 477.353485,226.497452 
	C478.857635,226.867691 480.363342,227.231659 481.865662,227.609146 
	C496.651031,231.324158 504.137970,241.838928 503.110748,257.442322 
	C502.268951,270.228699 492.133606,280.291809 478.442719,282.146851 
	C462.345520,284.327942 448.791412,280.287506 438.839539,266.291382 
	C441.784454,263.618927 444.701385,260.971832 447.795471,258.164001 
	C449.707275,260.183838 451.339508,262.029480 453.098267,263.745361 
	C460.401733,270.870483 469.206421,272.025360 478.584747,269.509399 
	C485.969513,267.528259 490.195312,261.034515 489.910431,253.242447 
	C489.628265,245.526215 484.899231,239.327515 477.142975,238.240784 
	C471.324646,237.425583 465.300476,238.079773 459.182983,238.079773 
	C458.132568,232.222473 458.732208,227.677536 463.640228,223.392609 
	C469.711578,218.092026 474.716461,211.569916 480.315094,205.429672 
	C476.510315,205.429672 471.999146,205.429672 466.990173,205.429443 
z"/>
<path fill="#0A69E1" opacity="1.000000" stroke="none" 
	d="
M607.038696,270.198669 
	C607.099487,273.973694 607.099487,277.269592 607.099487,280.839996 
	C586.842468,280.839996 566.946838,280.839996 547.078552,280.839996 
	C545.468140,274.081146 546.898743,268.951263 552.521301,264.187378 
	C562.798523,255.479675 572.356934,245.919388 582.138245,236.633682 
	C584.301941,234.579666 586.349060,232.336014 588.097168,229.924042 
	C592.793701,223.444077 593.195923,215.256409 589.317749,209.855164 
	C585.447937,204.465515 577.506531,201.864822 569.897156,204.776627 
	C565.609802,206.417252 561.932007,209.860474 558.278687,212.856445 
	C556.559875,214.266022 555.546387,216.535751 553.931152,218.813492 
	C550.689270,216.632401 547.595520,214.550964 544.553589,212.504349 
	C552.333801,192.703552 579.198669,185.168182 595.691650,197.907166 
	C606.702087,206.411469 609.171631,222.793655 600.046021,234.563675 
	C593.875854,242.521774 586.122925,249.269577 578.936035,256.416016 
	C574.855957,260.473145 570.489929,264.242584 565.354736,268.967804 
	C578.268433,268.967804 590.004028,268.936951 601.739075,269.001373 
	C603.486633,269.010956 605.231750,269.468994 607.038696,270.198669 
z"/>
<path fill="#050505" opacity="1.000000" stroke="none" 
	d="
M217.806671,222.138519 
	C223.138321,226.488495 226.014771,231.890701 226.119629,238.321838 
	C226.349548,252.422638 226.190872,266.529785 226.190872,280.866943 
	C222.636429,280.866943 219.031525,280.866943 215.065475,280.866943 
	C214.903809,278.207397 214.738968,275.495850 214.528915,272.040405 
	C213.251099,273.230164 212.471405,273.942688 211.706329,274.670563 
	C203.246643,282.718842 193.259018,284.102875 182.566513,280.724609 
	C175.609146,278.526398 171.784012,272.317047 171.562225,264.547455 
	C171.339447,256.742889 175.330368,249.661148 182.449432,247.204819 
	C187.058731,245.614441 192.131363,245.086334 197.043457,244.728271 
	C202.626511,244.321289 208.262024,244.634247 213.812119,244.634247 
	C214.615372,237.255280 212.456223,232.479233 207.436737,229.958450 
	C199.994354,226.220901 190.388016,228.625931 182.443649,236.402512 
	C179.827179,234.270950 177.179489,232.113937 174.569519,229.987656 
	C182.838287,216.436493 203.212860,212.739365 217.806671,222.138519 
M194.161865,254.267410 
	C192.864777,254.540573 191.525925,254.689621 190.278183,255.109436 
	C186.039673,256.535583 183.577209,259.330292 184.044373,264.020935 
	C184.495926,268.554749 187.363602,270.755585 191.671082,270.992889 
	C194.789886,271.164764 198.017654,271.303528 201.050964,270.710724 
	C209.426666,269.073822 215.427994,261.195251 213.838623,254.193344 
	C207.605484,254.193344 201.326950,254.193344 194.161865,254.267410 
z"/>
<path fill="#040404" opacity="1.000000" stroke="none" 
	d="
M372.752777,217.564636 
	C377.801300,217.585983 382.517212,217.168091 387.026764,217.946121 
	C397.313690,219.720947 404.559204,227.336273 404.953217,237.689163 
	C405.496094,251.952881 405.089264,266.252747 405.089264,280.816528 
	C401.573578,280.816528 397.986664,280.816528 394.002716,280.816528 
	C393.852142,278.202942 393.695190,275.478943 393.495636,272.015320 
	C392.254425,273.124878 391.453217,273.784668 390.715515,274.509094 
	C382.349030,282.725189 372.349487,284.049072 361.650909,280.789185 
	C354.581055,278.634979 350.489410,272.028900 350.381775,264.230072 
	C350.275696,256.545166 354.476715,249.483429 361.676483,247.092911 
	C366.309875,245.554504 371.382111,245.078476 376.300568,244.727448 
	C381.732391,244.339783 387.213257,244.638916 392.620026,244.638916 
	C393.670624,237.651855 391.488617,232.544159 386.555359,230.015900 
	C379.038940,226.163773 369.005920,228.614792 361.464569,236.424683 
	C358.871185,234.335098 356.233063,232.209488 353.294861,229.842087 
	C357.958191,222.800278 364.287415,218.934555 372.752777,217.564636 
M386.284790,267.967621 
	C390.463989,264.399994 394.570435,260.797577 392.896057,253.699051 
	C385.001007,254.151672 377.211731,254.234497 369.528503,255.179657 
	C365.152557,255.717957 362.703003,258.949860 362.992218,263.724487 
	C363.272980,268.359955 366.074554,271.035583 370.305023,270.858276 
	C375.444153,270.642883 380.533875,269.249756 386.284790,267.967621 
z"/>
<path fill="#0A0A0A" opacity="1.000000" stroke="none" 
	d="
M76.456146,193.452087 
	C80.221268,193.444244 83.535187,193.444244 87.447952,193.444244 
	C87.447952,218.504150 87.447952,243.361511 87.447952,268.643860 
	C103.269981,268.643860 118.499397,268.643860 133.907745,268.643860 
	C133.907745,272.862183 133.907745,276.650299 133.907745,280.775452 
	C114.247231,280.775452 94.531960,280.775452 74.378258,280.775452 
	C74.317055,279.507538 74.188087,278.072968 74.187416,276.638336 
	C74.175270,250.515091 74.146362,224.391693 74.256744,198.268921 
	C74.263527,196.663483 75.396149,195.062805 76.456146,193.452087 
z"/>
<path fill="#0481FB" opacity="1.000000" stroke="none" 
	d="
M341.116364,95.440475 
	C342.747559,93.916199 344.563171,92.545662 345.981659,90.844070 
	C361.698303,71.990517 380.489105,72.306358 394.788391,92.262856 
	C406.636627,108.798637 409.492554,127.637543 405.998505,147.334930 
	C405.176575,151.968552 401.777008,156.144928 399.221802,160.316269 
	C397.580475,156.848465 396.369354,153.555923 394.927734,150.367645 
	C394.483521,149.385178 393.410126,148.687210 392.735352,147.477905 
	C397.109375,134.056900 394.623047,121.321861 389.866730,109.190712 
	C387.472900,103.085281 383.167084,97.415337 378.648651,92.548607 
	C374.430756,88.005531 368.231384,87.074142 362.537537,90.179337 
	C356.136108,93.670410 351.531647,99.084381 348.546234,105.691940 
	C345.920898,102.113632 343.518616,98.777061 341.116364,95.440475 
z"/>
<path fill="#0381FB" opacity="1.000000" stroke="none" 
	d="
M339.987091,119.728287 
	C333.672089,130.220215 327.453094,140.771942 320.980591,151.165802 
	C319.158478,154.091904 316.698547,156.651932 314.349945,159.213760 
	C303.365784,171.195267 279.523712,169.059341 274.250824,148.652145 
	C273.673096,146.416199 273.404388,144.100388 273.426941,141.361145 
	C278.126892,139.564575 283.225830,141.981384 286.994934,138.389771 
	C288.000610,144.256760 288.759277,150.103775 295.235168,151.793808 
	C302.002502,153.559921 306.024689,148.951935 309.798248,144.338715 
	C310.217926,143.825623 310.581665,143.264542 310.947571,142.710037 
	C318.354309,131.485703 325.757599,120.259079 333.400696,109.227432 
	C334.752655,110.631577 335.865387,111.841194 337.013519,113.394012 
	C338.028290,115.734230 339.007690,117.731255 339.987091,119.728287 
z"/>
<path fill="#0B0B0B" opacity="1.000000" stroke="none" 
	d="
M159.972015,207.001465 
	C159.972015,231.910538 159.972015,256.320068 159.972015,280.911377 
	C155.682755,280.911377 151.773804,280.911377 147.646423,280.911377 
	C147.646423,250.644302 147.646423,220.577347 147.646423,190.140594 
	C151.586411,190.140594 155.634155,190.140594 159.972015,190.140594 
	C159.972015,195.569763 159.972015,201.035843 159.972015,207.001465 
z"/>
<path fill="#0665E0" opacity="1.000000" stroke="none" 
	d="
M275.532318,114.953926 
	C278.091003,104.099876 282.832550,94.387833 290.807556,86.467453 
	C302.819763,74.537506 317.941101,73.811020 330.983948,84.616936 
	C334.158630,87.247162 336.877258,90.427826 339.523865,93.672623 
	C338.009033,93.575134 336.482635,93.484871 335.597687,92.684975 
	C332.917297,90.262238 331.064392,91.262383 328.929596,93.483963 
	C326.905518,95.590309 326.401978,97.155205 329.147522,99.030197 
	C329.510223,99.277870 328.812225,101.078682 328.333801,101.988083 
	C326.815765,100.491005 325.615601,99.118813 324.315674,97.848679 
	C315.412933,89.149750 305.941742,89.400726 298.509003,99.385445 
	C294.832489,104.324219 292.713379,110.422348 289.584534,115.851044 
	C287.561157,115.648766 285.332642,116.256638 284.223053,115.405617 
	C281.237762,113.115982 278.479736,113.913307 275.532318,114.953926 
z"/>
<path fill="#0A69E1" opacity="1.000000" stroke="none" 
	d="
M328.605469,102.160187 
	C328.812225,101.078682 329.510223,99.277870 329.147522,99.030197 
	C326.401978,97.155205 326.905518,95.590309 328.929596,93.483963 
	C331.064392,91.262383 332.917297,90.262238 335.597687,92.684975 
	C336.482635,93.484871 338.009033,93.575134 339.618042,93.995552 
	C340.298309,94.277794 340.602692,94.554337 341.011719,95.135681 
	C343.518616,98.777061 345.920898,102.113632 348.789978,105.952042 
	C355.265839,116.268723 361.274902,126.083572 366.975708,136.092941 
	C364.030823,140.566742 361.394165,144.846024 358.757507,149.125305 
	C352.710846,139.440231 346.664185,129.755142 340.302307,119.899178 
	C339.007690,117.731255 338.028290,115.734230 337.021301,112.986221 
	C336.967529,107.571754 335.299927,104.283958 329.818054,103.821335 
	C329.243408,103.162720 328.924438,102.661461 328.605469,102.160187 
z"/>
<path fill="#0772E9" opacity="1.000000" stroke="none" 
	d="
M358.867126,149.453827 
	C361.394165,144.846024 364.030823,140.566742 367.253693,136.270142 
	C368.906860,137.894913 369.891052,139.598511 371.056580,141.167358 
	C374.334686,145.579666 376.958038,150.731522 382.756958,152.385010 
	C380.732147,153.303604 377.897583,151.062241 377.168304,154.785248 
	C376.522308,158.083176 375.463898,161.300308 374.587524,164.553116 
	C367.362885,161.765533 363.178986,155.764282 358.867126,149.453827 
z"/>
<path fill="#047CF4" opacity="1.000000" stroke="none" 
	d="
M374.608093,164.536148 
	C375.463898,161.300308 376.522308,158.083176 377.168304,154.785248 
	C377.897583,151.062241 380.732147,153.303604 383.154236,152.331390 
	C386.736694,150.647446 389.680756,149.253220 392.624817,147.858978 
	C393.410126,148.687210 394.483521,149.385178 394.927734,150.367645 
	C396.369354,153.555923 397.580475,156.848465 398.919861,160.449844 
	C392.940796,167.720062 384.980560,166.268066 377.153381,165.354630 
	C376.260986,164.761078 375.471039,164.644501 374.681091,164.527924 
	C374.681091,164.527924 374.628662,164.519180 374.608093,164.536148 
z"/>
<path fill="#0A69E1" opacity="1.000000" stroke="none" 
	d="
M526.476685,264.692017 
	C532.555115,266.694275 535.035095,270.839447 533.585205,276.020996 
	C532.174377,281.063293 527.574768,283.668640 522.404724,282.354095 
	C517.371277,281.074310 514.860962,276.740723 515.947754,271.207367 
	C516.801392,266.860901 520.005859,264.784851 526.476685,264.692017 
z"/>
<path fill="#1BB98C" opacity="1.000000" stroke="none" 
	d="
M207.727386,374.720093 
	C195.594269,371.636017 189.423676,361.471497 192.532272,348.438019 
	C195.391449,347.744263 197.726700,347.439362 200.022919,347.485291 
	C199.618332,349.201996 199.252777,350.567810 198.522461,351.989929 
	C196.117279,357.485168 199.040054,363.162354 204.335693,363.468018 
	C205.766998,363.115875 206.925552,362.812164 208.084106,362.508484 
	C208.665390,366.568695 212.176208,363.708557 213.947784,365.308044 
	C213.345078,366.481140 212.730286,367.331818 211.861755,368.317871 
	C211.359833,368.960327 211.111633,369.467407 210.662567,370.077637 
	C210.218414,370.379272 210.065186,370.632324 209.707367,371.085449 
	C208.850952,372.394043 208.289169,373.557068 207.727386,374.720093 
z"/>
<path fill="#1BB98C" opacity="1.000000" stroke="none" 
	d="
M217.027222,333.790131 
	C227.944656,335.563690 235.019012,345.742920 232.849091,357.695679 
	C229.910202,358.999908 227.489319,359.909912 225.085373,360.421082 
	C228.509018,348.165009 223.471481,343.016632 214.008881,338.441711 
	C215.066833,336.673615 216.047028,335.231873 217.027222,333.790131 
z"/>
<path fill="#0772E9" opacity="1.000000" stroke="none" 
	d="
M275.340118,115.256943 
	C278.479736,113.913307 281.237762,113.115982 284.223053,115.405617 
	C285.332642,116.256638 287.561157,115.648766 289.588928,116.246628 
	C288.916718,121.857071 287.935028,126.927055 286.678284,131.731873 
	C285.513306,130.319412 284.648895,128.218475 283.728912,128.193863 
	C280.198761,128.099365 276.650818,128.670990 273.109497,128.994064 
	C273.788971,124.516029 274.468445,120.037994 275.340118,115.256943 
z"/>
<path fill="#1C2A32" opacity="1.000000" stroke="none" 
	d="
M434.102692,350.998260 
	C432.416870,353.389099 430.661163,355.734283 429.062073,358.181793 
	C426.822418,361.609680 425.203461,361.614716 423.077118,358.015839 
	C421.669189,355.632874 420.339874,353.203491 418.466003,349.895752 
	C418.151520,355.616089 417.894043,360.298981 417.636597,364.981842 
	C416.959442,364.962006 416.282288,364.942169 415.605133,364.922333 
	C415.402039,362.932922 415.077454,360.946838 415.022705,358.953369 
	C414.926666,355.456696 414.880219,351.949432 415.063568,348.459747 
	C415.121674,347.353729 415.977539,346.289642 416.468292,345.206360 
	C417.813690,345.842926 419.675842,346.123749 420.405762,347.184021 
	C422.441650,350.141418 424.008301,353.421814 426.135040,357.249329 
	C428.389282,353.200134 430.282562,349.799255 432.889954,346.226227 
	C434.390808,346.857727 435.820160,347.632263 435.858093,348.469849 
	C436.076111,353.280090 435.964233,358.105286 435.964233,362.925415 
	C435.794525,362.921722 435.624847,362.918030 435.455139,362.914337 
	C435.004333,358.942322 434.553497,354.970276 434.102692,350.998260 
z"/>
<path fill="#3BC49E" opacity="1.000000" stroke="none" 
	d="
M216.705338,333.546448 
	C216.047028,335.231873 215.066833,336.673615 213.628601,338.539795 
	C207.752930,340.006042 202.840683,341.858734 200.061951,347.134460 
	C197.726700,347.439362 195.391449,347.744263 192.664062,348.051147 
	C196.262405,336.944489 204.426788,331.949890 216.705338,333.546448 
z"/>
<path fill="#047CF4" opacity="1.000000" stroke="none" 
	d="
M273.022827,129.448090 
	C276.650818,128.670990 280.198761,128.099365 283.728912,128.193863 
	C284.648895,128.218475 285.513306,130.319412 286.751038,132.156525 
	C287.034088,134.565491 286.969299,136.284622 286.904510,138.003754 
	C283.225830,141.981384 278.126892,139.564575 273.485352,140.951111 
	C273.051544,137.301743 272.993866,133.601929 273.022827,129.448090 
z"/>
<path fill="#0D6BE1" opacity="1.000000" stroke="none" 
	d="
M401.980927,365.847748 
	C395.858154,365.185242 395.104706,359.334259 391.899963,355.008606 
	C391.046570,353.495667 390.411346,352.615295 389.582764,351.489319 
	C384.682526,345.906036 381.353058,346.526276 379.087982,353.181763 
	C378.664337,354.426514 378.344971,355.706726 377.613617,356.976624 
	C376.522034,356.985657 375.794250,356.988586 375.066498,356.991547 
	C375.382263,355.071228 375.393616,353.036377 376.065735,351.250122 
	C379.219910,342.867218 384.960022,341.665375 391.803467,348.249939 
	C392.688782,349.067932 393.136139,349.549469 393.620605,350.402283 
	C396.437195,354.693268 399.216675,358.613007 401.993408,362.864197 
	C401.987396,364.079712 401.984161,364.963745 401.980927,365.847748 
z"/>
<path fill="#1C2A32" opacity="1.000000" stroke="none" 
	d="
M471.877014,350.980804 
	C475.687469,350.817261 479.184814,350.772552 482.665985,350.988708 
	C483.185272,351.020935 484.019775,352.266327 484.042358,352.971832 
	C484.174042,357.080322 484.106812,361.195251 484.106812,364.727112 
	C481.577637,365.170044 479.603577,365.931854 477.728424,365.737762 
	C475.439026,365.500763 472.181427,365.123627 471.231934,363.616638 
	C469.731995,361.236023 469.519470,357.880707 469.351379,354.904663 
	C469.283936,353.709900 470.776245,352.427032 471.877014,350.980804 
M473.657806,361.878418 
	C476.239807,363.708191 479.114594,363.627350 480.386963,360.896973 
	C481.256104,359.031952 480.792847,356.035675 479.849823,354.058044 
	C479.397888,353.110260 476.088928,352.572601 474.710663,353.215118 
	C471.756226,354.592346 471.487518,357.452301 472.719727,360.383331 
	C472.847015,360.686096 472.995880,360.979797 473.657806,361.878418 
z"/>
<path fill="#1C2A32" opacity="1.000000" stroke="none" 
	d="
M445.110016,361.857483 
	C448.393738,362.369537 451.379120,362.582214 455.070343,362.845123 
	C451.183777,366.611938 447.560181,366.935455 443.743225,364.674805 
	C440.829315,362.948944 439.350616,357.268555 441.062866,353.739258 
	C442.696869,350.371246 445.782227,349.114532 449.416321,349.829559 
	C454.156311,350.762177 455.075928,354.319092 455.012207,358.962097 
	C451.979187,358.962097 449.038544,359.000549 446.099487,358.949982 
	C443.721893,358.909119 443.491150,359.824921 445.110016,361.857483 
M451.184448,357.059723 
	C452.734344,353.919739 450.554321,352.465790 448.250824,352.325684 
	C445.168945,352.138336 443.364044,353.963196 444.237091,357.631653 
	C446.403351,357.631653 448.517792,357.631653 451.184448,357.059723 
z"/>
<path fill="#1C2A32" opacity="1.000000" stroke="none" 
	d="
M462.483002,365.710907 
	C461.145752,363.408081 459.970184,361.342346 459.235443,359.130157 
	C458.352539,356.471954 457.844910,353.689117 457.018402,350.323334 
	C457.586884,349.556183 458.920654,347.756317 460.933777,345.039642 
	C461.633545,346.386414 462.399719,347.860962 463.395020,349.776581 
	C464.223877,349.854370 465.637756,349.987061 467.051636,350.119751 
	C467.190063,350.529846 467.328522,350.939941 467.466949,351.350067 
	C466.046509,352.031799 464.626038,352.713562 462.506683,353.730774 
	C462.506683,355.378082 462.351624,357.671417 462.577850,359.926483 
	C462.677765,360.922668 463.385406,362.002777 464.117004,362.752045 
	C464.934784,363.589630 466.092682,364.095093 467.102539,364.745087 
	C465.681671,365.124451 464.260803,365.503784 462.483002,365.710907 
z"/>
<path fill="#1D1D1D" opacity="1.000000" stroke="none" 
	d="
M306.655457,348.967590 
	C306.775635,347.351715 306.895813,345.735840 307.015961,344.119934 
	C307.539215,343.986450 308.062439,343.852997 308.585663,343.719513 
	C309.057800,345.643311 309.529938,347.567108 309.813263,348.721619 
	C312.457886,349.386566 316.289124,349.356842 316.835938,350.682190 
	C318.220520,354.038055 318.130524,358.002350 318.631134,361.722931 
	C317.861816,361.813934 317.092499,361.904938 316.323181,361.995911 
	C316.113037,360.138763 316.255219,358.142792 315.593597,356.463531 
	C314.933960,354.789276 313.468323,353.432526 312.356079,351.936584 
	C311.419250,353.391022 310.280823,354.757690 309.599274,356.323242 
	C308.836151,358.076202 308.486725,360.009277 307.465393,361.441254 
	C306.867493,357.001556 306.761475,352.984558 306.655457,348.967590 
z"/>
<path fill="#1D1D1D" opacity="1.000000" stroke="none" 
	d="
M254.096069,361.288849 
	C253.348694,361.650146 252.858200,361.707092 252.385178,361.640320 
	C242.417709,360.232941 242.418091,360.230225 243.073853,348.588989 
	C244.162109,349.386078 245.334732,349.798065 245.484039,350.445892 
	C245.810577,351.862579 245.230652,353.549988 245.736923,354.847473 
	C246.339432,356.391479 247.692322,357.642670 248.720078,359.020721 
	C249.730835,357.636230 251.138336,356.382690 251.649536,354.833405 
	C252.255737,352.996124 252.090012,350.904175 252.258850,348.922638 
	C252.959595,348.955688 253.660355,348.988770 254.361099,349.021851 
	C254.361099,352.990173 254.361099,356.958527 254.096069,361.288849 
z"/>
<path fill="#121212" opacity="1.000000" stroke="none" 
	d="
M283.061768,350.869293 
	C283.270050,351.632629 283.478333,352.395966 283.705139,353.227173 
	C289.864655,347.623138 291.484039,347.466095 296.638947,351.937683 
	C296.964172,351.963196 296.890167,351.890594 296.890167,351.890594 
	C296.754913,354.139496 297.189392,356.627197 296.367340,358.588196 
	C294.584686,362.840637 289.472412,363.070007 285.656769,359.494171 
	C285.109497,358.981293 284.213135,355.333405 283.113953,359.304749 
	C282.968048,356.433990 283.014893,353.651642 283.061768,350.869293 
M288.427734,352.609253 
	C288.407928,354.488678 288.041138,356.477112 288.576843,358.181976 
	C288.740509,358.702789 291.775177,359.037109 292.781219,358.373993 
	C293.763855,357.726196 294.597321,354.808929 294.164856,354.437378 
	C292.821899,353.283356 290.846405,352.865417 288.427734,352.609253 
z"/>
<path fill="#1D1D1D" opacity="1.000000" stroke="none" 
	d="
M267.913879,360.586487 
	C267.015106,360.517670 265.392853,360.603882 265.339264,360.353912 
	C265.066315,359.080383 265.208252,357.719727 265.187744,356.389862 
	C265.153473,354.164642 265.149261,351.476593 262.010651,352.159698 
	C260.817535,352.419403 259.690277,354.719574 259.261902,356.288788 
	C258.789429,358.019470 259.154053,359.978699 259.154053,361.838379 
	C258.530518,361.871246 257.906982,361.904114 257.283447,361.936981 
	C257.283447,357.853821 257.283447,353.770691 257.283447,349.650269 
	C268.116486,349.594208 268.116486,349.594208 268.085358,359.076996 
	C268.129608,360.037933 268.073029,360.322418 267.913879,360.586487 
z"/>
<path fill="#0481FB" opacity="1.000000" stroke="none" 
	d="
M393.583466,350.031036 
	C393.136139,349.549469 392.688782,349.067932 392.144745,348.359192 
	C397.268616,340.818726 403.895569,343.644165 406.761444,351.353668 
	C409.480560,358.668274 408.012665,363.746582 402.353027,365.913513 
	C401.984161,364.963745 401.987396,364.079712 402.374695,362.735352 
	C406.804382,359.392853 404.780670,355.651489 403.826019,352.379791 
	C401.947906,345.943512 398.312164,345.225555 393.583466,350.031036 
z"/>
<path fill="#121212" opacity="1.000000" stroke="none" 
	d="
M268.278534,360.263489 
	C268.073029,360.322418 268.129608,360.037933 268.006104,359.526703 
	C270.696472,359.320343 273.464417,359.320343 277.096619,359.320343 
	C274.720032,355.468506 267.241302,356.815521 270.473419,351.021851 
	C272.390198,347.585968 275.992859,348.385986 278.899536,351.518097 
	C277.809967,351.518097 276.717224,351.466522 275.631836,351.533691 
	C274.689911,351.591980 273.756287,351.784668 271.853729,352.055237 
	C275.155426,354.180969 277.471222,355.678223 279.829712,357.104950 
	C279.854340,357.119843 280.439606,356.207947 280.935364,355.772766 
	C281.091339,357.478790 281.075043,359.140747 281.058777,360.802704 
	C280.435242,360.517639 279.434753,359.829071 279.244080,360.007202 
	C275.650970,363.364563 272.156799,362.049133 268.278534,360.263489 
z"/>
<path fill="#0481FB" opacity="1.000000" stroke="none" 
	d="
M374.973816,357.397797 
	C375.794250,356.988586 376.522034,356.985657 377.686676,357.370361 
	C378.869965,359.258331 379.616394,360.758636 380.362793,362.258972 
	C381.797241,361.349030 383.573151,360.718018 384.593048,359.469421 
	C386.547638,357.076569 388.072815,354.332977 389.776154,351.734894 
	C390.411346,352.615295 391.046570,353.495667 391.823425,354.666199 
	C390.350342,357.115387 388.697144,359.246918 387.130615,361.440369 
	C385.151794,364.211090 383.003357,366.983276 379.131744,365.776337 
	C375.370270,364.603699 374.610107,361.368561 374.973816,357.397797 
z"/>
<path fill="#ADB3B5" opacity="1.000000" stroke="none" 
	d="
M208.133881,374.789886 
	C208.289169,373.557068 208.850952,372.394043 209.912445,371.352325 
	C216.570786,368.351410 222.729401,365.229187 229.299728,362.091858 
	C230.537170,362.089447 231.362885,362.102173 232.188614,362.114868 
	C231.923294,362.883850 231.874161,364.110107 231.360168,364.353088 
	C223.789902,367.932098 216.157791,371.380371 208.133881,374.789886 
z"/>
<path fill="#ADB3B5" opacity="1.000000" stroke="none" 
	d="
M348.033173,338.416016 
	C348.043915,350.365173 348.043915,361.857269 348.043915,373.349396 
	C347.552704,373.348755 347.061523,373.348145 346.570312,373.347534 
	C346.570312,360.994720 346.570312,348.641876 346.570312,334.813324 
	C347.446198,336.710663 347.734314,337.334808 348.033173,338.416016 
z"/>
<path fill="#121212" opacity="1.000000" stroke="none" 
	d="
M305.059784,361.195282 
	C300.581177,363.039581 300.062042,359.918518 299.382172,356.784180 
	C299.029572,355.158630 298.312164,353.612183 297.324860,351.960297 
	C296.890167,351.890594 296.964172,351.963196 297.001038,351.998291 
	C298.081055,350.030945 299.124237,348.028534 300.167389,346.026123 
	C300.821991,346.449402 301.505035,346.835266 302.123749,347.305695 
	C302.849792,347.857819 303.519958,348.483398 304.695435,349.464508 
	C304.949524,350.532379 304.930908,351.545349 304.461761,351.839447 
	C301.435150,353.736298 301.136261,356.687805 303.769958,359.089874 
	C304.354065,359.622650 304.637756,360.484802 305.059784,361.195282 
z"/>
<path fill="#EDEDED" opacity="1.000000" stroke="none" 
	d="
M305.235962,361.445923 
	C304.637756,360.484802 304.354065,359.622650 303.769958,359.089874 
	C301.136261,356.687805 301.435150,353.736298 304.461761,351.839447 
	C304.930908,351.545349 304.949524,350.532379 305.039734,349.446716 
	C305.291931,349.004608 305.680878,348.967682 306.362671,348.949158 
	C306.761475,352.984558 306.867493,357.001556 307.087769,361.464386 
	C306.605408,361.839050 306.008759,361.767822 305.235962,361.445923 
z"/>
<path fill="#121212" opacity="1.000000" stroke="none" 
	d="
M434.048523,351.460999 
	C434.553497,354.970276 435.004333,358.942322 435.455139,362.914337 
	C435.624847,362.918030 435.794525,362.921722 435.964233,362.925415 
	C435.964233,358.105286 436.076111,353.280090 435.858093,348.469849 
	C435.820160,347.632263 434.390808,346.857727 433.170410,346.049164 
	C434.005280,345.493256 435.273804,344.942261 437.112793,344.143494 
	C437.112793,351.023193 437.169281,356.947296 437.052429,362.867950 
	C437.034698,363.765472 436.211151,364.647095 435.760315,365.536072 
	C435.161011,364.636017 434.094116,363.760651 434.045013,362.831512 
	C433.853271,359.204834 433.983704,355.561096 434.048523,351.460999 
z"/>
<path fill="#040404" opacity="1.000000" stroke="none" 
	d="
M281.092529,361.133728 
	C281.075043,359.140747 281.091339,357.478790 281.052063,355.403931 
	C280.996552,351.297821 280.996552,347.604614 280.996552,343.911377 
	C281.612579,343.895874 282.228607,343.880341 282.844666,343.864838 
	C282.984650,345.907959 283.124634,347.951080 283.163177,350.431763 
	C283.014893,353.651642 282.968048,356.433990 282.991455,359.675842 
	C282.416626,360.578491 281.771454,361.021606 281.092529,361.133728 
z"/>
<path fill="#3BC49E" opacity="1.000000" stroke="none" 
	d="
M232.331818,361.789795 
	C231.362885,362.102173 230.537170,362.089447 228.949875,362.021362 
	C227.111160,361.668915 226.034027,361.371857 224.937714,360.990509 
	C224.918549,360.906189 225.068436,360.819946 225.068436,360.819946 
	C227.489319,359.909912 229.910202,358.999908 232.688873,358.050873 
	C232.856125,359.162842 232.665558,360.313782 232.331818,361.789795 
z"/>
<path fill="#0772E9" opacity="1.000000" stroke="none" 
	d="
M374.857788,164.723480 
	C375.471039,164.644501 376.260986,164.761078 376.819519,165.058289 
	C376.070221,165.132294 375.552368,165.025665 374.857788,164.723480 
z"/>
<path fill="#F8F8F8" opacity="1.000000" stroke="none" 
	d="
M194.605133,254.230377 
	C201.326950,254.193344 207.605484,254.193344 213.838623,254.193344 
	C215.427994,261.195251 209.426666,269.073822 201.050964,270.710724 
	C198.017654,271.303528 194.789886,271.164764 191.671082,270.992889 
	C187.363602,270.755585 184.495926,268.554749 184.044373,264.020935 
	C183.577209,259.330292 186.039673,256.535583 190.278183,255.109436 
	C191.525925,254.689621 192.864777,254.540573 194.605133,254.230377 
z"/>
<path fill="#F8F8F8" opacity="1.000000" stroke="none" 
	d="
M385.964905,268.166870 
	C380.533875,269.249756 375.444153,270.642883 370.305023,270.858276 
	C366.074554,271.035583 363.272980,268.359955 362.992218,263.724487 
	C362.703003,258.949860 365.152557,255.717957 369.528503,255.179657 
	C377.211731,254.234497 385.001007,254.151672 392.896057,253.699051 
	C394.570435,260.797577 390.463989,264.399994 385.964905,268.166870 
z"/>
<path fill="#FCFDFF" opacity="1.000000" stroke="none" 
	d="
M392.735352,147.477905 
	C389.680756,149.253220 386.736694,150.647446 383.395386,152.095306 
	C376.958038,150.731522 374.334686,145.579666 371.056580,141.167358 
	C369.891052,139.598511 368.906860,137.894913 367.561951,136.075623 
	C361.274902,126.083572 355.265839,116.268723 349.013031,106.193771 
	C351.531647,99.084381 356.136108,93.670410 362.537537,90.179337 
	C368.231384,87.074142 374.430756,88.005531 378.648651,92.548607 
	C383.167084,97.415337 387.472900,103.085281 389.866730,109.190712 
	C394.623047,121.321861 397.109375,134.056900 392.735352,147.477905 
z"/>
<path fill="#FCFDFF" opacity="1.000000" stroke="none" 
	d="
M286.994934,138.389771 
	C286.969299,136.284622 287.034088,134.565491 287.026123,132.421692 
	C287.935028,126.927055 288.916718,121.857071 289.894012,116.391510 
	C292.713379,110.422348 294.832489,104.324219 298.509003,99.385445 
	C305.941742,89.400726 315.412933,89.149750 324.315674,97.848679 
	C325.615601,99.118813 326.815765,100.491005 328.333771,101.988083 
	C328.924438,102.661461 329.243408,103.162720 329.909668,104.137848 
	C331.225159,106.085449 332.193359,107.559166 333.161530,109.032898 
	C325.757599,120.259079 318.354309,131.485703 310.947571,142.710037 
	C310.581665,143.264542 310.217926,143.825623 309.798248,144.338715 
	C306.024689,148.951935 302.002502,153.559921 295.235168,151.793808 
	C288.759277,150.103775 288.000610,144.256760 286.994934,138.389771 
z"/>
<path fill="#0665E0" opacity="1.000000" stroke="none" 
	d="
M333.400696,109.227425 
	C332.193359,107.559166 331.225159,106.085449 330.165344,104.295212 
	C335.299927,104.283958 336.967529,107.571754 336.985962,112.643028 
	C335.865387,111.841194 334.752655,110.631577 333.400696,109.227425 
z"/>
<path fill="#121212" opacity="1.000000" stroke="none" 
	d="
M200.022919,347.485321 
	C202.840683,341.858734 207.752930,340.006042 213.550842,338.866150 
	C223.471481,343.016632 228.509018,348.165009 225.085373,360.421082 
	C225.068436,360.819946 224.918549,360.906189 224.551849,360.983185 
	C220.768661,362.368622 217.352173,363.677094 213.935669,364.985535 
	C212.176208,363.708557 208.665390,366.568695 208.084106,362.508484 
	C206.925552,362.812164 205.766998,363.115875 204.428406,363.086090 
	C203.497238,362.044556 202.746124,361.336456 201.995026,360.628357 
	C201.581467,360.875214 201.167892,361.122070 200.754333,361.368927 
	C200.131958,358.223816 199.509583,355.078735 198.887207,351.933655 
	C199.252777,350.567810 199.618332,349.201996 200.022919,347.485321 
M219.101257,351.589752 
	C219.640045,351.126373 220.178848,350.662964 220.717636,350.199554 
	C219.189423,348.989105 217.661194,347.778687 215.864532,346.355621 
	C215.177277,347.488281 214.642487,348.369690 214.082275,349.292969 
	C209.660400,345.136292 208.071732,345.070435 205.268066,348.158112 
	C206.584534,349.213226 207.922028,350.285217 209.259521,351.357178 
	C207.655151,352.512238 206.050781,353.667297 204.252823,354.961700 
	C206.641281,360.969574 214.908249,362.667633 219.751419,357.345551 
	C218.424026,356.507263 217.096634,355.668976 215.473740,354.644073 
	C216.626083,353.334106 217.520935,352.316833 219.101257,351.589752 
z"/>
<path fill="#CFCFCF" opacity="1.000000" stroke="none" 
	d="
M213.947769,365.308014 
	C217.352173,363.677094 220.768661,362.368622 224.571014,361.067505 
	C226.034027,361.371857 227.111160,361.668915 228.538162,362.036438 
	C222.729401,365.229187 216.570786,368.351410 210.207092,371.206787 
	C210.065186,370.632324 210.218414,370.379272 210.939163,369.966888 
	C211.649597,369.229492 211.882538,368.705963 212.115479,368.182465 
	C212.730286,367.331818 213.345078,366.481140 213.947769,365.308014 
z"/>
<path fill="#CFCFCF" opacity="1.000000" stroke="none" 
	d="
M198.522446,351.989929 
	C199.509583,355.078735 200.131958,358.223816 200.754333,361.368927 
	C201.167892,361.122070 201.581467,360.875214 201.995026,360.628357 
	C202.746124,361.336456 203.497238,362.044556 204.155640,363.134552 
	C199.040054,363.162354 196.117279,357.485168 198.522446,351.989929 
z"/>
<path fill="#ADB3B5" opacity="1.000000" stroke="none" 
	d="
M211.861755,368.317871 
	C211.882538,368.705963 211.649597,369.229492 211.140045,369.863770 
	C211.111633,369.467407 211.359833,368.960327 211.861755,368.317871 
z"/>
<path fill="#F8F8F8" opacity="1.000000" stroke="none" 
	d="
M393.620605,350.402283 
	C398.312164,345.225555 401.947906,345.943512 403.826019,352.379791 
	C404.780670,355.651489 406.804382,359.392853 402.377441,362.403870 
	C399.216675,358.613007 396.437195,354.693268 393.620605,350.402283 
z"/>
<path fill="#F8F8F8" opacity="1.000000" stroke="none" 
	d="
M389.582764,351.489319 
	C388.072815,354.332977 386.547638,357.076569 384.593048,359.469421 
	C383.573151,360.718018 381.797241,361.349030 380.362793,362.258972 
	C379.616394,360.758636 378.869965,359.258331 378.050507,357.364288 
	C378.344971,355.706726 378.664337,354.426514 379.087982,353.181763 
	C381.353058,346.526276 384.682526,345.906036 389.582764,351.489319 
z"/>
<path fill="#F8F8F8" opacity="1.000000" stroke="none" 
	d="
M473.396271,361.578064 
	C472.995880,360.979797 472.847015,360.686096 472.719727,360.383331 
	C471.487518,357.452301 471.756226,354.592346 474.710663,353.215118 
	C476.088928,352.572601 479.397888,353.110260 479.849823,354.058044 
	C480.792847,356.035675 481.256104,359.031952 480.386963,360.896973 
	C479.114594,363.627350 476.239807,363.708191 473.396271,361.578064 
z"/>
<path fill="#CFCFCF" opacity="1.000000" stroke="none" 
	d="
M450.908356,357.345703 
	C448.517792,357.631653 446.403351,357.631653 444.237091,357.631653 
	C443.364044,353.963196 445.168945,352.138336 448.250824,352.325684 
	C450.554321,352.465790 452.734344,353.919739 450.908356,357.345703 
z"/>
<path fill="#F8F8F8" opacity="1.000000" stroke="none" 
	d="
M288.772034,352.385559 
	C290.846405,352.865417 292.821899,353.283356 294.164856,354.437378 
	C294.597321,354.808929 293.763855,357.726196 292.781219,358.373993 
	C291.775177,359.037109 288.740509,358.702789 288.576843,358.181976 
	C288.041138,356.477112 288.407928,354.488678 288.772034,352.385559 
z"/>
<path fill="#EDEDED" opacity="1.000000" stroke="none" 
	d="
M218.758514,351.444672 
	C217.520935,352.316833 216.626083,353.334106 215.473740,354.644073 
	C217.096634,355.668976 218.424026,356.507263 219.753494,357.347107 
	C214.908249,362.667633 206.641281,360.969574 204.252823,354.961700 
	C206.050781,353.667297 207.655151,352.512238 209.259521,351.357178 
	C207.922028,350.285217 206.584534,349.213226 205.268066,348.158112 
	C208.071732,345.070435 209.660400,345.136292 214.082275,349.292969 
	C214.642487,348.369690 215.177277,347.488281 215.864532,346.355621 
	C217.661194,347.778687 219.189423,348.989105 220.717651,350.199554 
	C220.178848,350.662964 219.640045,351.126373 218.758514,351.444672 
z"/>
</svg>